<svg xmlns="http://www.w3.org/2000/svg" xmlns:xlink="http://www.w3.org/1999/xlink" viewBox="0 0 70 60"><defs><style>.cls-1{fill:none;}.cls-2{clip-path:url(#clip-path);}.cls-3{fill:#231815;}.cls-4{fill:#c01920;}</style><clipPath id="clip-path"><rect class="cls-1" x="5" y="6.04" width="60" height="48.45"/></clipPath></defs><g id="レイヤー_2" data-name="レイヤー 2"><g id="header"><g id="nav"><rect class="cls-1" width="70" height="60"/><g class="cls-2"><g class="cls-2"><path class="cls-3" d="M20,6l.55,0a14.81,14.81,0,0,1,4.83,1.35,26.58,26.58,0,0,1,6.71,4.48,22.93,22.93,0,0,1,3.61,3.95c.42.59.76,1.24,1.14,1.86l.06.1c.28-.44.55-.9.86-1.33a23.16,23.16,0,0,1,4.51-4.66A21.77,21.77,0,0,1,47.6,8.62a11.45,11.45,0,0,1,4.83-.95,12.86,12.86,0,0,1,8.07,3.1,11.64,11.64,0,0,1,4,6.57,11.56,11.56,0,0,1-2.3,10A12.69,12.69,0,0,1,54.34,32a12,12,0,0,1-7.49-1.07,24.22,24.22,0,0,1-6.18-4.23,20,20,0,0,1-3.26-3.79c-.16-.26-.3-.52-.45-.78L36.88,22a18.05,18.05,0,0,1-3.2,4.34,27,27,0,0,1-9.2,6.44,13.42,13.42,0,0,1-3.72,1,12.82,12.82,0,0,1-2.77,0,14.2,14.2,0,0,1-4.82-1.38,13.6,13.6,0,0,1-7.7-9.79A13,13,0,0,1,8.35,11.29a14.08,14.08,0,0,1,8.56-5c.72-.13,1.45-.16,2.17-.24l.11,0Zm-.58,1.18h-.2c-.59.06-1.18.08-1.76.17a13.17,13.17,0,0,0-7.63,4,12.19,12.19,0,0,0-3.45,7.81A11.85,11.85,0,0,0,7.66,25.4a12.84,12.84,0,0,0,5.79,5.75,13.41,13.41,0,0,0,4.71,1.39,10.78,10.78,0,0,0,3.4-.11A15.67,15.67,0,0,0,26,30.79a27.61,27.61,0,0,0,7.86-6.36,14.43,14.43,0,0,0,2-2.94,3.64,3.64,0,0,0,.46-1.64,3.21,3.21,0,0,0-.3-1.18,11.92,11.92,0,0,0-1.74-2.8,27,27,0,0,0-6.89-6.06,18.22,18.22,0,0,0-5.17-2.27c-.52-.13-1.05-.21-1.6-.31,0,.08,0,.13,0,.17V20.59a.55.55,0,0,0,.59.58h.54v1.14a1.93,1.93,0,0,1-1.92-.64,2.85,2.85,0,0,1-4.9-1.82c0-1,0-1.94,0-2.91a2.73,2.73,0,0,1,0-.41,2.85,2.85,0,0,1,4.4-2l.12.07ZM52.08,31h.32a11.42,11.42,0,0,0,5.51-1.54,10.82,10.82,0,0,0,5.67-8.67,9.83,9.83,0,0,0-1.21-5.87,11.52,11.52,0,0,0-10.2-6.1,9.23,9.23,0,0,0-3.44.62A18.94,18.94,0,0,0,43.94,12a23.52,23.52,0,0,0-5.1,5A9,9,0,0,0,37.6,19.2a2.16,2.16,0,0,0,0,1.44,7.48,7.48,0,0,0,.75,1.53A19,19,0,0,0,41.67,26a22,22,0,0,0,6.09,4,10.77,10.77,0,0,0,4.32,1M16,18.33h0c0,.52,0,1,0,1.56a1.7,1.7,0,0,0,3.39-.25V17a2.12,2.12,0,0,0,0-.44,1.71,1.71,0,0,0-1.72-1.32A1.68,1.68,0,0,0,16,16.83c0,.5,0,1,0,1.5"/><path class="cls-3" d="M5,41.05a1.94,1.94,0,0,1,1.19-1.33.18.18,0,0,0,.09-.12c0-.21,0-.43,0-.66h-1c0-.17,0-.32,0-.47h.91c.14,0,.18,0,.18-.17a5.34,5.34,0,0,1,0-.55l.67,0c-.24.19-.13.42-.19.68l1.92-.2c0,.13,0,.29,0,.49l-2,.17v.57c.24,0,.48,0,.72-.07.07,0,.13-.11.21-.2l.42.11v.17l.45.18a1.27,1.27,0,0,1,.16,2.14,3,3,0,0,1-1.43.46c-.06-.13-.13-.26-.19-.4a6.39,6.39,0,0,0,.63-.13,3,3,0,0,0,.58-.26.75.75,0,0,0,.35-.87A.82.82,0,0,0,8,40a4.05,4.05,0,0,1-1,1.38l.09.22-.41.27-.09-.17a4.35,4.35,0,0,1-.75.24.62.62,0,0,1-.8-.5l0,0Zm1.3-.87a1.23,1.23,0,0,0-.64.51,1.44,1.44,0,0,0-.15.51.22.22,0,0,0,.28.25,3.23,3.23,0,0,0,.59-.22s0-.07,0-.11l-.12-.94m1.18-.24,0-.06c-.19,0-.39,0-.58.09a.12.12,0,0,0-.07.07c0,.25,0,.51,0,.76l.08,0,.56-.88"/><path class="cls-3" d="M65,41.86a.78.78,0,0,1-.55.52.71.71,0,1,1,.48-1l.07.15Zm-.22-.17a.5.5,0,0,0-.48-.5.5.5,0,0,0-.5.49.49.49,0,1,0,1,0"/><path class="cls-3" d="M33.53,47.72H31.59v1.86h1.94a3,3,0,0,1-.08.61A6.34,6.34,0,0,1,32,52.6l-.12.14A6.84,6.84,0,0,0,34.31,54l-.29.49a7.39,7.39,0,0,1-2.46-1.38,6.38,6.38,0,0,1-2.51,1.38.35.35,0,0,1-.06-.09L28.8,54a6,6,0,0,0,2.4-1.29,7.67,7.67,0,0,1-1.31-2.18l.45-.16a5.69,5.69,0,0,0,1.22,2A5.46,5.46,0,0,0,33,50H29.21a10,10,0,0,1-.2,2.31,5.29,5.29,0,0,1-1,2.11l-.4-.35c.15-.25.32-.49.46-.75a6,6,0,0,0,.61-2.83c0-1,0-2.05,0-3.08v-.2h2.4V46.16h.48v1.09h2.49a5.12,5.12,0,0,1-.51,2L33.12,49l.41-1.31m-4.31,1.85h1.87V47.73H29.22Z"/><path class="cls-3" d="M24.38,52.79l.37.16a.14.14,0,0,1,.06.11c-.06.29-.11.59-.19.88a.5.5,0,0,1-.45.35,2,2,0,0,1-.35,0H21.05c-.53,0-.74-.2-.74-.72,0-.2,0-.4,0-.62H17.53v.49h-.48V50.05h7V53H20.83c0,.26,0,.52,0,.77,0,0,.08.1.13.13a.29.29,0,0,0,.16,0h2.7a.43.43,0,0,0,.48-.43c0-.22.05-.44.08-.67m-6.85-.26h2.76v-.86H17.53Zm3.3,0h2.73v-.87H20.83Zm-.53-2.06H17.54v.78H20.3Zm.52.77h2.74v-.77H20.82Z"/><path class="cls-3" d="M45.44,46.49h7.34v8h-.51v-.42H46v.42h-.51ZM46,53.6h6.3V46.93H46Z"/><path class="cls-3" d="M36.89,49.59v-.44h5.36a.57.57,0,0,1-.21.63A13,13,0,0,1,40.18,51c-.25.13-.25.13-.22.43h3.79v.47H40v1.9a2.44,2.44,0,0,1,0,.27.44.44,0,0,1-.46.45h-1.8L37.56,54h1.65c.16,0,.23-.07.23-.22V51.88h-4v-.47h4v-.76l0,0A2.64,2.64,0,0,0,40.9,50a2.47,2.47,0,0,0,.51-.42Z"/><polygon class="cls-3" points="16.58 47.47 20.3 47.47 20.3 46.95 16.97 46.95 16.97 46.51 24.17 46.51 24.17 46.94 20.82 46.94 20.82 47.47 24.56 47.47 24.56 49.23 24.06 49.23 24.06 47.89 20.82 47.89 20.82 49.76 20.3 49.76 20.3 47.88 17.06 47.88 17.06 49.23 16.58 49.23 16.58 47.47"/><path class="cls-3" d="M52.75,38.47,51,38.59c0-.13,0-.32,0-.52l1,0,1.38-.09a.09.09,0,0,1,.1,0c.11.11.2.24.28.33L52.1,39.72c.35,0,.69-.12,1-.13a1.17,1.17,0,0,1,1.23.82A1.33,1.33,0,0,1,53.79,42a2.27,2.27,0,0,1-1.76.24.69.69,0,0,1-.52-1,.87.87,0,0,1,.7-.42,1,1,0,0,1,1.07.67s0,.11,0,.16a.8.8,0,0,0,.55-.81.77.77,0,0,0-.64-.73,2.47,2.47,0,0,0-1.29.15,2.77,2.77,0,0,0-1.13.81l-.09.1,0,0-.35-.36,2.42-2.32m.09,3.35c-.06-.45-.39-.7-.72-.61a.31.31,0,0,0-.26.28.25.25,0,0,0,.23.26c.24,0,.49,0,.75.07"/><path class="cls-3" d="M49.89,41.21a1.79,1.79,0,0,0,0,.24c0,.33,0,.34-.27.48a2.06,2.06,0,0,1-.35.12.59.59,0,0,1-.78-.58c0-.31,0-.62,0-.93s0-.58.06-.86c0-.55-.24-.72-.73-.48a3.43,3.43,0,0,0-.94.71.34.34,0,0,0-.06.2v2.12h-.5V40.47l-.84,1L45.27,41l.75-.88c.08-.1.14-.22.21-.32a.9.9,0,0,0,.13-.62l-.88.08v-.49l.77-.07c.11,0,.15,0,.15-.15s0-.51,0-.78l.74.05c-.26.19-.17.46-.2.69,0,0,.08.13.14.21s-.13.36-.21.61a6,6,0,0,1,.49-.38,3.73,3.73,0,0,1,.63-.32.77.77,0,0,1,1.13.79c0,.38,0,.76-.07,1.13s0,.45,0,.68.14.33.37.23a5,5,0,0,0,.5-.27"/><path class="cls-3" d="M41.64,42.25h-.47V40.4l-.86,1-.26-.46c.47-.53,1.07-1,1.14-1.76l-1,.07v-.48l1-.07c0-.32,0-.6,0-.91l.63.05c-.18.13-.12.32-.14.48s-.08.35.19.37c-.1.26-.18.5-.27.74l0,0,.39-.22a2.43,2.43,0,0,1,1.12-.3,1.31,1.31,0,0,1,1.39,1.37A1.53,1.53,0,0,1,43.25,42c-.23.06-.46.09-.7.13s-.16,0-.19-.12-.08-.2-.12-.32a3.7,3.7,0,0,0,.58-.1,3.19,3.19,0,0,0,.75-.27,1.06,1.06,0,0,0,.28-1.56,1,1,0,0,0-1-.29,2.53,2.53,0,0,0-1.14.55.3.3,0,0,0-.08.2v2.07"/><path class="cls-3" d="M36.22,48.19v1.43H35.7V47.74h.22c1.79,0,3.57,0,5.35,0a.3.3,0,0,0,.3-.16l.71-1.33.49.2-.71,1.28h1.48v1.89H43V48.19Z"/><path class="cls-3" d="M14.55,42.19,14.08,42A8.79,8.79,0,0,0,15,39.57l-.82.11c0-.18,0-.33,0-.5l1-.11c.07-.41.13-.82.2-1.25l.68.08c-.35.3-.21.74-.38,1.12l.22,0a3.23,3.23,0,0,1,.44,0,.9.9,0,0,1,.87.84A3.41,3.41,0,0,1,17,41.6a.88.88,0,0,1-1.31.5,2.55,2.55,0,0,1-.39-.24.22.22,0,0,1,0-.16,2.81,2.81,0,0,1,.13-.33l.11.06a2.93,2.93,0,0,0,.39.21.42.42,0,0,0,.64-.26,6.65,6.65,0,0,0,.19-1,1.44,1.44,0,0,0,0-.46.53.53,0,0,0-.55-.47c-.52,0-.53,0-.67.49a9.71,9.71,0,0,1-.74,2l-.13.23"/><path class="cls-3" d="M33.86,39c.07.21.12.4.17.56a6.91,6.91,0,0,0-1.59.53,6.4,6.4,0,0,0-.92.52,1.2,1.2,0,0,0-.32.35.43.43,0,0,0,.19.65,1.85,1.85,0,0,0,.72.17c.58,0,1.16,0,1.74-.08l.29,0c0,.17,0,.33,0,.52-.25,0-.49.06-.73.06q-.9,0-1.8,0a1.25,1.25,0,0,1-.46-.12.9.9,0,0,1-.4-1.43,4,4,0,0,1,.69-.61,2.35,2.35,0,0,1,.37-.24,5.74,5.74,0,0,1-.21-2l.72.06v0c-.19.08-.15.25-.15.4,0,.34.05.69.07,1a1.55,1.55,0,0,0,.07.23l1.5-.57"/><path class="cls-3" d="M63,41.65c0,.17,0,.33,0,.52l-1.14.07a6.36,6.36,0,0,1-1.57-.07,1,1,0,0,1-.86-.73,1,1,0,0,1,.18-.82,2.72,2.72,0,0,1,.87-.71,1.18,1.18,0,0,1,.19-.11,5.82,5.82,0,0,1-.22-2l.73.07c-.25.16-.14.39-.14.58s0,.63.06,1a1.89,1.89,0,0,0,.06.18L62.71,39c.06.21.12.4.16.56a7.85,7.85,0,0,0-1.73.59,5,5,0,0,0-.85.52.6.6,0,0,0-.29.66.56.56,0,0,0,.56.4c.41,0,.83,0,1.24,0s.79-.06,1.19-.09"/><path class="cls-3" d="M22.86,41.65c0,.17,0,.33.05.52l-1.13.06a5.66,5.66,0,0,1-1.59-.07,1,1,0,0,1-.85-.74.89.89,0,0,1,.26-.88,8.3,8.3,0,0,1,.8-.64,1,1,0,0,1,.18-.1,5.59,5.59,0,0,1-.21-2l.72.07c-.28.36-.11.75-.12,1.12a3.19,3.19,0,0,0,.08.6L22.58,39c.06.2.12.39.17.57a7,7,0,0,0-1.87.64,4.32,4.32,0,0,0-.8.54c-.41.38-.28.83.26,1a4.6,4.6,0,0,0,1.48.06c.35,0,.69-.06,1-.09"/><path class="cls-3" d="M24.83,42.33c-.11-.16-.22-.29-.31-.42.32-.13.66-.24,1-.39a3,3,0,0,0,.62-.46,1,1,0,0,0,.3-.9.6.6,0,0,0-.67-.58,9.69,9.69,0,0,0-1.18.2,2.5,2.5,0,0,0-.51.16,1.43,1.43,0,0,0-.24.16l-.21-.62,1.74-.36a2,2,0,0,1,.65,0,1.09,1.09,0,0,1,1,1.24,1.74,1.74,0,0,1-.76,1.36,4.43,4.43,0,0,1-1.4.63"/><path class="cls-3" d="M35.65,40.77h3.13v1.6h-.47l0-.16H36.12v.18h-.46Zm.47,1h2.16v-.59H36.12Z"/><path class="cls-3" d="M10.84,41.88c.22-.11.44-.21.65-.34a2,2,0,0,0,1-2c0-.54-.07-1.08-.1-1.61h.64a2.19,2.19,0,0,0,0,.42c0,.53.05,1.07.05,1.6a2.14,2.14,0,0,1-.85,1.76c-.29.22-.63.38-.94.57-.08,0-.13,0-.19-.05l-.27-.31"/><path class="cls-3" d="M56.15,40.05a4.15,4.15,0,0,0-.32.5.61.61,0,0,0,.46.9,2.78,2.78,0,0,0,.64.06c.54,0,1.09-.08,1.63-.12h.1l0,.52a7.06,7.06,0,0,1-.78.07c-.55,0-1.11,0-1.66,0a1,1,0,0,1-1-.83,1.41,1.41,0,0,1,.43-1.22.13.13,0,0,1,.12,0,3.49,3.49,0,0,1,.34.15"/><rect class="cls-3" x="34.91" y="38.63" width="4.59" height="0.4"/><path class="cls-3" d="M55.48,38.83v-.45l2.91-.13c0,.12,0,.28,0,.44a6.09,6.09,0,0,0-.75.28,8.06,8.06,0,0,0-.8.48c-.1.07-.17.09-.27,0l-.3-.17.67-.47Z"/><path class="cls-3" d="M27.63,50.79l.43.23a12.53,12.53,0,0,1-1.75,3.34L26,54c.31-.51.65-1,.93-1.56s.5-1.09.75-1.65"/><path class="cls-3" d="M10.71,39.71l.36-.65c.08.1.15.18.21.27a.2.2,0,0,1,0,.15c-.1.19-.22.36-.31.56a4.37,4.37,0,0,0-.19.55l-.45.07a6.47,6.47,0,0,1,0-2.63l.67.09c-.27.21-.21.5-.25.77a7.17,7.17,0,0,0-.08.81h0"/><rect class="cls-3" x="35.72" y="40.06" width="3" height="0.37"/><rect class="cls-3" x="35.81" y="37.93" width="2.82" height="0.37"/><polygon class="cls-3" points="38.73 39.36 38.73 39.59 38.73 39.72 35.72 39.72 35.72 39.36 38.73 39.36"/><path class="cls-3" d="M18.64,40.5l-.53.19a3.33,3.33,0,0,0-.93-1.7l.42-.27a3.4,3.4,0,0,1,1,1.78"/><path class="cls-3" d="M24.26,38.22c0-.14.08-.29.12-.46a8.76,8.76,0,0,1,2,.37c0,.17-.08.33-.12.47l-2-.38"/><path class="cls-3" d="M26,49l.27-.42,1.53,1-.3.46L26,49"/><path class="cls-3" d="M28,47.71l-1.58-1.06.24-.4,1.63,1-.29.43"/><path class="cls-3" d="M28.74,42.39l-1.09-1.15L28,40.9,29.16,42l-.42.39"/><rect class="cls-3" x="17.61" y="49.16" width="2.12" height="0.35"/><rect class="cls-3" x="17.61" y="48.33" width="2.12" height="0.35"/><rect class="cls-3" x="21.37" y="48.33" width="2.11" height="0.35"/><rect class="cls-3" x="21.37" y="49.15" width="2.12" height="0.36"/><path class="cls-3" d="M40,47.28l-.47.19c-.23-.39-.45-.78-.69-1.18l.47-.2L40,47.28"/><path class="cls-3" d="M37.18,47.61c-.23-.39-.46-.76-.69-1.16l.42-.19.73,1.17-.46.18"/><path class="cls-3" d="M17.87,37.52l.65.71-.26.18-.64-.71.25-.18"/><path class="cls-3" d="M17.48,38.62l-.63-.71c.21-.19.22-.19.42,0s.3.33.46.51l-.25.19"/><path class="cls-4" d="M24.15,12.38a1.2,1.2,0,1,1,1.19-1.2,1.19,1.19,0,0,1-1.19,1.2"/><path class="cls-4" d="M17.27,11.18A1.19,1.19,0,1,1,16.08,10a1.18,1.18,0,0,1,1.19,1.19"/><path class="cls-3" d="M53.18,15.58l0-.31h1.13c0,.05,0,.1,0,.15v9.75a2.85,2.85,0,0,1-5.7,0v0h1.14a1.69,1.69,0,0,0,.42,1.13,1.74,1.74,0,0,0,1.84.48,1.69,1.69,0,0,0,1.13-1.52c0-1.14,0-2.28,0-3.42,0,0,0,0,0-.06l-.14.08a2.85,2.85,0,0,1-4.37-2,12.48,12.48,0,0,1,0-1.5,4.63,4.63,0,0,1,.11-1.29,2.87,2.87,0,0,1,4.44-1.47m-3.39,3.08h0c0,.33,0,.66,0,1a1.67,1.67,0,0,0,1.7,1.52,1.69,1.69,0,0,0,1.68-1.58c0-.61,0-1.23,0-1.84a1.7,1.7,0,0,0-3.38-.05c0,.32,0,.64,0,1"/><path class="cls-4" d="M44.89,18.47a1.2,1.2,0,1,1,1.17,1.21,1.18,1.18,0,0,1-1.17-1.21"/><path class="cls-4" d="M57.21,19.68A1.18,1.18,0,0,1,56,18.49a1.2,1.2,0,1,1,1.18,1.19"/><path class="cls-3" d="M46.46,53.13l-.25-.44a7.47,7.47,0,0,0,2.55-1.55H46.9V49.63h4.45v1.54l.36.22-1,.88,1.3.61-.26.4a7.08,7.08,0,0,1-2.51-1.7v1.75h-.45V51.65a7.82,7.82,0,0,1-2.32,1.48m.91-2.39h3.51V50H47.37ZM50.31,52l1-.86H49.39l0,0,.94.82"/><polygon class="cls-3" points="51.58 47.98 49.37 47.98 49.37 48.65 52 48.65 52 49.03 46.22 49.03 46.22 48.66 48.87 48.66 48.87 47.99 46.64 47.99 46.64 47.59 48.88 47.59 48.88 47.19 49.35 47.19 49.35 47.58 51.58 47.58 51.58 47.98"/></g></g></g></g></g></svg>