<svg xmlns="http://www.w3.org/2000/svg" viewBox="0 0 230 60"><defs><style>.cls-1{fill:#d3162c;}.cls-2,.cls-3,.cls-4{fill:#fff;}.cls-3{font-size:12.91px;}.cls-3,.cls-4{font-family:HiraKakuProN-W6-83pv-RKSJ-H, Hiragino Kaku Gothic ProN;}.cls-4{font-size:10px;}</style></defs><g id="レイヤー_2" data-name="レイヤー 2"><g id="header"><g id="nav"><path class="cls-1" d="M220,60H10A10,10,0,0,1,0,50V0H230V50A10,10,0,0,1,220,60Z"/><path class="cls-2" d="M27.75,16.5,34.5,39.06H30.72L26.13,23.7a.86.86,0,0,0-1.64,0L19.9,39.06H16.12L22.87,16.5Z"/><path class="cls-2" d="M44.66,16.5a1.29,1.29,0,0,1,1.18,1.05l1.71,5.69H43.78l-.91-3.07H39.45l-2.28,7.61,2.28,7.61h3.42l.91-3.07h3.77L45.84,38a1.31,1.31,0,0,1-1.18,1.05h-7A1.31,1.31,0,0,1,36.47,38l-2.91-9.69a1.81,1.81,0,0,1,0-1.08l2.91-9.69a1.29,1.29,0,0,1,1.18-1.05Z"/><path class="cls-2" d="M59.45,16.5l6.74,22.56H62.42L57.82,23.7a.85.85,0,0,0-1.63,0l-4.6,15.36H47.81L54.56,16.5Z"/><path class="cls-2" d="M17.65,41.63a.37.37,0,0,1,.29.2.73.73,0,0,1,.72.73c0,.87-1.1.93-1.29.94l0-.06c.5-.11,1-.41,1-.91a.52.52,0,0,0-.45-.52,3,3,0,0,1-.66.87.7.7,0,0,1,0,.2.09.09,0,0,1-.1.1c-.09,0-.13-.09-.14-.11a1.11,1.11,0,0,1-.57.27c-.25,0-.34-.27-.34-.41A1.15,1.15,0,0,1,17,42c0-.06,0-.14.05-.4l-.38,0a.33.33,0,0,1-.36-.26l0,0a.36.36,0,0,0,.27.07,4.46,4.46,0,0,0,.46,0,1.85,1.85,0,0,0,.05-.35c0-.11-.07-.15-.15-.19v-.05a.34.34,0,0,1,.14,0c.16,0,.33.12.33.22a.24.24,0,0,1,0,.12,1.23,1.23,0,0,0-.09.24,2.2,2.2,0,0,0,.55-.12l.22-.06c.09,0,.2.07.2.15s-.09.1-.36.16l-.65.1c0,.1,0,.17-.05.35a2.17,2.17,0,0,1,.51-.08c0-.05,0-.08-.1-.13Zm-.69.54a1,1,0,0,0-.58.73c0,.13.07.2.15.2a1.14,1.14,0,0,0,.47-.27,3.05,3.05,0,0,1,0-.66m.25.45a2.34,2.34,0,0,0,.45-.63,1.85,1.85,0,0,0-.47.08,4,4,0,0,0,0,.55"/><path class="cls-2" d="M19.16,41.1c.4,0,.44.29.44.32s-.05.3-.05.35a2.91,2.91,0,0,0,0,.4c0,.42.13.65.22.65s.07,0,.15-.13.16-.22.32-.46l.06,0-.26.6A.43.43,0,0,0,20,43s0,.15,0,.17a.11.11,0,0,1-.12.11.61.61,0,0,1-.42-.32,1.61,1.61,0,0,1-.2-.87c0-.1,0-.53,0-.62a.34.34,0,0,0-.15-.32ZM21,42.54l.28-.07a.11.11,0,0,0,.1-.11,1.33,1.33,0,0,0-.49-1l0,0c.7.15.77,1,.77,1.14s0,.29-.15.29-.08,0-.12-.08-.07-.08-.41-.11Z"/><path class="cls-2" d="M22.61,43.36c.62,0,1.46-.21,1.46-.8a.39.39,0,0,0-.44-.38,1.33,1.33,0,0,0-.91.41c-.08.09-.1.11-.15.11s-.18-.12-.18-.22,0,0,.06-.15a5.54,5.54,0,0,0,.25-.69l-.28,0a.35.35,0,0,1-.37-.26l.05,0a.44.44,0,0,0,.3.08l.37,0a1.55,1.55,0,0,0,.1-.41c0-.09-.06-.13-.14-.17l0-.06.12,0c.17,0,.35.15.35.24a1.86,1.86,0,0,1-.1.2,1.12,1.12,0,0,0-.08.18,3.38,3.38,0,0,0,.63-.14.74.74,0,0,1,.18-.06c.11,0,.21.08.21.15s-.09.1-.22.13L23,41.6c0,.11-.2.6-.24.7a2,2,0,0,1,.94-.29.61.61,0,0,1,.69.59c0,.5-.48.84-1.46.84l-.28,0Z"/><path class="cls-2" d="M24.93,43.4a3.41,3.41,0,0,0,1.55-1.48,2,2,0,0,0,.18-.42l0,0c-.08,0-.53.09-.62.09a.48.48,0,0,1-.22-.07,2,2,0,0,1-.92.79l0-.06a2.91,2.91,0,0,0,.88-1.18c0-.08-.11-.11-.15-.12v-.07a.35.35,0,0,1,.15,0c.15,0,.35.15.35.24s0,.06-.08.12l-.09.14H26a4.25,4.25,0,0,0,.65-.09,1.59,1.59,0,0,1,.2-.07.47.47,0,0,1,.26.24s0,0-.1.1-.05,0-.16.27A2.76,2.76,0,0,1,25,43.46Z"/><path class="cls-2" d="M27.6,41.08a.2.2,0,0,1,.13,0c.14,0,.34.11.34.2s0,.1,0,.11a.62.62,0,0,0,0,.16c0,.11,0,.6,0,.71s0,.25-.12.25-.18-.26-.18-.3a1.16,1.16,0,0,0,0-.15c0-.07,0-.17,0-.21,0-.61,0-.61-.19-.66Zm1.16-.14a.33.33,0,0,1,.19-.07c.14,0,.35.1.35.2a1.29,1.29,0,0,1,0,.19c0,.12,0,.65,0,.75a1.34,1.34,0,0,1-1.14,1.48l0-.05c.89-.46.89-1,.89-2.14,0-.22,0-.25-.21-.3Z"/><path class="cls-2" d="M29.88,42.7a.29.29,0,0,0,.25.13l.94-.09c0-1.08,0-1.12-.05-1.2h-.17l-.36.06a.31.31,0,0,1-.26-.33l.05,0a.33.33,0,0,0,.27.1c.14,0,.91-.06,1.1-.09l.25,0c.08,0,.28.09.28.18s-.11.09-.32.09-.55,0-.59,0a.18.18,0,0,1,.09.15,2.66,2.66,0,0,1,0,.28c0,.09,0,.45,0,.79l.7,0,.22,0a.38.38,0,0,1,.33.25c0,.07-.09.07-.11.07l-.3,0-.51,0a8.18,8.18,0,0,0-1.25.11l-.27.06a.4.4,0,0,1-.3-.34.15.15,0,0,1,0-.06Z"/><path class="cls-2" d="M33,41.9a.27.27,0,0,0,.28.14L34.86,42l.32,0c.08,0,.35.08.35.21s0,.1-.11.1h-.6c-.15,0-.94,0-1.33.06l-.27.05c-.14,0-.27-.23-.27-.33s0-.09,0-.11Z"/><path class="cls-2" d="M35.93,42.31a3.42,3.42,0,0,0,.86-1.24c0-.09-.11-.14-.15-.16l0-.06.13,0c.15,0,.35.15.35.25s0,.06-.09.14l0,.06a3.63,3.63,0,0,0,.76-.07l.21-.06a.48.48,0,0,1,.28.24s0,0-.08.08-.08.07-.21.33a2.74,2.74,0,0,1-1.89,1.67l0-.06a3,3,0,0,0,1.18-.92c-.07,0-.08,0-.2-.16a1.6,1.6,0,0,0-.49-.4,1.59,1.59,0,0,1-.57.42Zm1.88-.86s0,0,0,0-.57.07-.67.07a.46.46,0,0,1-.21,0,3.26,3.26,0,0,1-.3.41c.19,0,.75.2.72.5a3.94,3.94,0,0,0,.49-.91"/><path class="cls-2" d="M38.76,41.9A.27.27,0,0,0,39,42L40.59,42l.31,0c.09,0,.36.08.36.21s0,.1-.12.1h-.59c-.15,0-.94,0-1.34.06l-.27.05c-.14,0-.26-.23-.26-.33a.31.31,0,0,1,0-.11Z"/><path class="cls-2" d="M41.6,43.31a3.52,3.52,0,0,0,1.61-1.68,2.08,2.08,0,0,0,.1-.24s0,0,0,0-.55.08-.84.14a2.58,2.58,0,0,1-.26.08c-.11,0-.24-.21-.24-.33a.43.43,0,0,1,0-.12l.06,0c0,.09.09.16.22.16s.93-.1,1-.13a1.42,1.42,0,0,1,.18-.08c.07,0,.3.17.3.27s0,0-.09.08-.06.06-.17.27-.27.46-.33.56c.23.14.93.53.93.9a.16.16,0,0,1-.14.17c-.06,0-.07,0-.18-.19a2.85,2.85,0,0,0-.69-.76,2.44,2.44,0,0,1-1.44,1Zm2-2.58c.37.13.53.35.53.47a.12.12,0,0,1-.1.13c-.05,0-.05,0-.15-.17a1.44,1.44,0,0,0-.32-.38Zm.28-.18c.42.13.56.35.56.45s0,.12-.09.12-.07,0-.13-.12a1.28,1.28,0,0,0-.38-.39Z"/><path class="cls-2" d="M44.93,43.44a1.73,1.73,0,0,0,.69-1,2.05,2.05,0,0,0,.09-.51c0-.1-.05-.13-.19-.19v-.06a.47.47,0,0,1,.17,0,.35.35,0,0,1,.33.19,2.92,2.92,0,0,0,.61-.5l0-.06s0,0,0,0a12.55,12.55,0,0,0-1.42.2s-.26.08-.3.08a.4.4,0,0,1-.3-.36.41.41,0,0,1,0-.12l.06,0a.29.29,0,0,0,.28.17c.2,0,1.64-.16,1.65-.17s.18-.06.22-.06.29.25.29.33,0,.07-.1.09-.08,0-.21.13a3.45,3.45,0,0,1-.84.5,1.65,1.65,0,0,1-1,1.43Z"/><path class="cls-2" d="M47.56,41.19c.6.18.72.51.72.64s-.07.2-.15.2S48,42,48,41.84a1.85,1.85,0,0,0-.42-.6ZM49.28,41l.12,0c.19,0,.43.21.43.32s0,0-.07.14a1.8,1.8,0,0,0-.14.35,2.18,2.18,0,0,1-1.75,1.57l0,0a2.56,2.56,0,0,0,1.25-1.06,2.75,2.75,0,0,0,.35-1c0-.12-.11-.18-.18-.22Z"/><path class="cls-2" d="M50.3,41.65c.47,0,.86.12.86.36,0,.07,0,.15-.12.15s-.09,0-.15-.09a1.85,1.85,0,0,0-.61-.36Zm.29,1.21c0,.06.11.17.2.17a3.47,3.47,0,0,0,1-.59,4.5,4.5,0,0,0,.95-1l.06,0a3.59,3.59,0,0,1-1.61,1.71l-.2.14a.17.17,0,0,1-.12.06.45.45,0,0,1-.34-.39.43.43,0,0,1,0-.11Zm0-1.89c.44,0,.86.11.86.37a.14.14,0,0,1-.12.15c-.06,0-.09,0-.14-.09a2,2,0,0,0-.61-.37Z"/><path class="cls-2" d="M53.08,42.7a.29.29,0,0,0,.25.13l1-.09c0-1.08,0-1.12-.06-1.2h-.17l-.36.06a.31.31,0,0,1-.26-.33l0,0a.35.35,0,0,0,.27.1c.15,0,.92-.06,1.1-.09l.26,0c.07,0,.27.09.27.18s-.11.09-.31.09-.55,0-.6,0a.16.16,0,0,1,.09.15,2.66,2.66,0,0,1,0,.28c0,.09,0,.45,0,.79l.69,0,.23,0a.38.38,0,0,1,.32.25c0,.07-.09.07-.11.07l-.3,0-.51,0a8.18,8.18,0,0,0-1.25.11l-.27.06a.4.4,0,0,1-.3-.34.15.15,0,0,1,0-.06Z"/><path class="cls-2" d="M56.23,41.9a.28.28,0,0,0,.29.14L58.06,42l.32,0c.08,0,.36.08.36.21a.1.1,0,0,1-.12.1H58c-.16,0-1,0-1.34.06l-.27.05c-.14,0-.27-.23-.27-.33s0-.09,0-.11Z"/><path class="cls-2" d="M59.17,41.65c.48,0,.87.12.87.36a.15.15,0,0,1-.13.15c-.06,0-.09,0-.15-.09a1.74,1.74,0,0,0-.6-.36Zm.29,1.21c0,.06.12.17.2.17a3.48,3.48,0,0,0,1-.59,5,5,0,0,0,1-1l0,0A3.54,3.54,0,0,1,60,43.18l-.2.14a.16.16,0,0,1-.12.06.46.46,0,0,1-.33-.39.41.41,0,0,1,0-.11Zm0-1.89c.43,0,.86.11.86.37a.14.14,0,0,1-.13.15c-.06,0-.09,0-.14-.09a2,2,0,0,0-.61-.37Z"/><path class="cls-2" d="M62.07,43a.22.22,0,0,0,.21.09c.14,0,.72-.08.84-.08l.08,0c0-.09,0-.39,0-.5h-.09c-.16,0-.46,0-.63.06l-.26.05a.27.27,0,0,1-.21-.23.35.35,0,0,1,0-.06l.06,0a.19.19,0,0,0,.15.07c.14,0,.84-.09.88-.09a.29.29,0,0,1,.1,0c0-.07,0-.38,0-.44s0,0,0,0-.44,0-.7.07l-.27,0c-.1,0-.2-.15-.2-.23s0-.06,0-.09h.06a.22.22,0,0,0,.2.09l.88-.07.15-.05c.07,0,.24.13.24.2s0,0-.06.09a1,1,0,0,0,0,.32c0,.16,0,.92,0,1s0,.15-.11.15-.12-.14-.12-.15a4.74,4.74,0,0,0-.75.06l-.21,0c-.1,0-.22-.15-.22-.26A.11.11,0,0,1,62,43Z"/><path class="cls-2" d="M64.06,41c.18,0,.88.19.88.56,0,.1,0,.18-.13.18s-.1-.05-.17-.15a2.23,2.23,0,0,0-.61-.54Zm.08,1.78s.12.15.22.15a4.67,4.67,0,0,0,2-1.55l.05,0a3.86,3.86,0,0,1-1.73,1.75l-.14.11a.15.15,0,0,1-.09,0,.48.48,0,0,1-.34-.42s0-.07,0-.09Z"/><text class="cls-3" transform="translate(83.88 41.83)">クリエーターズクラブ</text><text class="cls-4" transform="translate(83.88 24.64)">卒業生による卒業生のための</text></g></g></g></svg>