<svg xmlns="http://www.w3.org/2000/svg" viewBox="0 0 266 110.08"><defs><style>.cls-1{fill:#d3162c;}.cls-2{fill:#fff;}</style></defs><g id="レイヤー_2" data-name="レイヤー 2"><g id="header"><g id="nav"><rect class="cls-1" y="16.08" width="266" height="29"/><rect class="cls-1" y="52.08" width="153" height="58"/><path class="cls-2" d="M36.53,71.39c-3.05,5.87-4.42,7.77-8.22,11.44a14,14,0,0,0-2.16-2.92,25.3,25.3,0,0,0-1.46,3.23,40.74,40.74,0,0,1-2.87-5.21c0,.79,0,.79.13,3.22,0,.18.05,2.43.05,2.91V94.75a45.27,45.27,0,0,0,.26,5.43h-5a35.3,35.3,0,0,0,.31-5.43v-9l0-2.25s.05-1.24.18-3.63a36.41,36.41,0,0,1-4.68,10.43,29.07,29.07,0,0,0-2.43-5c2.47-3.05,5.08-8.61,6.36-13.6H15.28a26.59,26.59,0,0,0-3.4.17V67.24a24.75,24.75,0,0,0,3.4.18h2.21V63.75a29.29,29.29,0,0,0-.22-4.59h4.95A38.35,38.35,0,0,0,22,63.75v3.67h1.76a15.44,15.44,0,0,0,2.65-.18v4.55a24.25,24.25,0,0,0-2.56-.13H22.09a19.7,19.7,0,0,0,4.15,6.53c2.43-2.12,4.19-4.64,6.05-8.7Zm9.67,8.7a45.66,45.66,0,0,1-4.91,8.79c3.05,2.91,6.05,4.63,11.31,6.36a17.59,17.59,0,0,0-2.47,4.81c-5.44-2.21-8.53-4.24-11.79-7.55a32.46,32.46,0,0,1-11.53,7.64,15.47,15.47,0,0,0-2.74-4.29C29.28,94,32.15,92.28,35.42,89a34.67,34.67,0,0,1-4.59-8.48l4-2a28,28,0,0,0,3.49,6.88,26.36,26.36,0,0,0,3.48-7.11ZM36,62.87a17.07,17.07,0,0,0-.22-3.31h5.25a16.67,16.67,0,0,0-.22,3.22v1.9h6a35.67,35.67,0,0,0,4.86-.27v4.86c-1.46-.13-3-.22-4.91-.22H32.24a40.47,40.47,0,0,0-4.94.26v-4.9a35.8,35.8,0,0,0,4.9.27H36Zm8.26,6.49a26.4,26.4,0,0,0,7.81,8.83,17.94,17.94,0,0,0-2.73,4.2c-4.2-3.49-6-5.61-8.92-10.87Z"/><path class="cls-2" d="M90.93,77a23.4,23.4,0,0,0-1.24,2.57,37.44,37.44,0,0,1-6.53,10.06c3.75,2.52,7.55,4,13.42,5.35a16.67,16.67,0,0,0-2.69,5,61.89,61.89,0,0,1-8-3.18,32.45,32.45,0,0,1-6.22-3.84,33.9,33.9,0,0,1-5.57,3.75,48.54,48.54,0,0,1-7.9,3.4,15,15,0,0,0-2.92-4.46,34.92,34.92,0,0,0,12.85-5.87,30.37,30.37,0,0,1-5.87-8.35,48.17,48.17,0,0,1-4.15,8.79,38.45,38.45,0,0,1-7.46,9,15.93,15.93,0,0,0-3.76-3.75A32.87,32.87,0,0,0,64.3,83.05a47,47,0,0,0,3.49-13.34H61.16a37.21,37.21,0,0,0-5.38.27V64.85a45.11,45.11,0,0,0,5.38.27h7.07c.09-1,.13-2.74.13-3.8a14.66,14.66,0,0,0-.17-2.38l5.6.13c-.13.84-.26,1.9-.35,3.14-.13,1.67-.13,2-.22,2.91H90.49a45.11,45.11,0,0,0,5.38-.27V70a35.46,35.46,0,0,0-5.38-.27H72.73c-.26,2.12-.39,2.92-.7,4.77H84.52a21.06,21.06,0,0,0,3.93-.22Zm-17,1.86a24.6,24.6,0,0,0,5.6,7.81,29.72,29.72,0,0,0,5.22-7.81Z"/><path class="cls-2" d="M108.72,73.69a41.41,41.41,0,0,1-7.06,3.79A20.72,20.72,0,0,0,99.1,73a41.29,41.29,0,0,0,11.08-6.14,29.07,29.07,0,0,0,7-7.42h5.25a26.85,26.85,0,0,0,7.46,7.33,46.5,46.5,0,0,0,11.35,6,20,20,0,0,0-2.43,5,46.4,46.4,0,0,1-7.55-4v3.45a31.85,31.85,0,0,0-4-.18H112.52a33.5,33.5,0,0,0-3.8.18Zm-2.43,11.39a42.86,42.86,0,0,0-5.21.26V80.22a42.65,42.65,0,0,0,5.21.27H133.8a40.83,40.83,0,0,0,5.17-.27v5.12a42.6,42.6,0,0,0-5.17-.26H118.61A48,48,0,0,1,114,93.65c7.82-.45,7.82-.45,14-1.11-1.41-1.54-2.16-2.34-4.64-4.9l4.37-1.94A90,90,0,0,1,138,97.49l-4.24,2.78c-1.46-2.16-1.9-2.78-2.65-3.84-3.67.48-6.32.79-7.95,1-4.37.4-13.12,1.19-14.88,1.32a53.5,53.5,0,0,0-5.7.62L101.83,94c1.2.08,2,.13,2.56.13.31,0,1.64,0,3.89-.18A45.9,45.9,0,0,0,113,85.08Zm20.93-12.76c.71,0,1.11,0,1.95,0a35.78,35.78,0,0,1-9.23-8.56,37.74,37.74,0,0,1-9.19,8.56c.75,0,1,0,1.81,0Z"/><path class="cls-1" d="M2,.48a6,6,0,0,0-.06,1V7.74A7.45,7.45,0,0,0,2,8.88H.84A10.31,10.31,0,0,0,.9,7.72V1.5a8.72,8.72,0,0,0-.06-1ZM3.16,1.69c0-.41,0-.69,0-1a9.06,9.06,0,0,0,1,0H7.57a9.26,9.26,0,0,0,1,0,6.73,6.73,0,0,0-.05.95v6a8.94,8.94,0,0,0,.06,1.09H7.44V8.22H4.23v.55H3.11a7.63,7.63,0,0,0,.05-1.13ZM4.24,7.22H7.43V4.86H4.24Zm0-3.36H7.44V1.72H4.25Z"/><path class="cls-1" d="M15.81,2.72A7.65,7.65,0,0,1,17,3.66,9.46,9.46,0,0,0,18.58,2H16.12A9.76,9.76,0,0,1,13.6,4,2.4,2.4,0,0,0,13,3.2a7.12,7.12,0,0,0,3.32-3l1.11.27c-.25.35-.33.47-.49.68h1.92a4.79,4.79,0,0,0,.82,0l.55.59-.33.43A12.72,12.72,0,0,1,17,4.81h3a5.54,5.54,0,0,0,.79,0,5.3,5.3,0,0,0-.05.86V8a5.85,5.85,0,0,0,.06.93H19.8v-.5H16.23V9H15.14A6.61,6.61,0,0,0,15.2,8V6a18.27,18.27,0,0,1-1.78.84,2.56,2.56,0,0,0-.6-.94,14,14,0,0,0,2.25-1c.3-.17.6-.37,1.11-.7a6.81,6.81,0,0,0-1.14-1Zm.41,4.85h3.59V5.72H16.22Z"/><path class="cls-1" d="M25.87,1.16a3.9,3.9,0,0,0-.06-.85H27a4.8,4.8,0,0,0-.06.85v.7h2.59c.43,0,.81,0,1.12-.05V2.92a10.1,10.1,0,0,0-1.12-.06H27V4.47H28.9a5.79,5.79,0,0,0,.84,0,5.71,5.71,0,0,0,0,.88V7.89a7.08,7.08,0,0,0,.05,1H28.63V8.44H24.4v.48H23.26a7.42,7.42,0,0,0,.06-1V5.31a5.73,5.73,0,0,0-.05-.88,6.23,6.23,0,0,0,.85,0h1.75V2.86H23.46a9.29,9.29,0,0,0-1.13.06V1.81c.31,0,.7.05,1.13.05h2.41ZM24.4,7.46h4.21v-2H24.4Z"/><path class="cls-1" d="M35.91,5.67l-.73,0c-1,0-1.41.08-1.56.11l-.14-.91.41,0h.71A5.65,5.65,0,0,0,35,4.15H33.31A16.83,16.83,0,0,1,33,6.82a6.46,6.46,0,0,1-.76,2.08,4.77,4.77,0,0,0-.83-.85,5.19,5.19,0,0,0,.68-1.83,23.66,23.66,0,0,0,.31-4.59A7.74,7.74,0,0,0,32.33.56a7.89,7.89,0,0,0,1.23.06h5.13a7.08,7.08,0,0,0,1-.05,5.94,5.94,0,0,0,0,.75V2.2a4.44,4.44,0,0,0,0,.67c-.34,0-.61,0-1,0H33.34v.5h5.48a6.85,6.85,0,0,0,1.09,0V4.2a6.57,6.57,0,0,0-1,0H38.3c.36.33.78.76,1.41,1.46l-.85.49-.48-.6-1.46.11v.77h1.67a6,6,0,0,0,.94,0v.9a8.77,8.77,0,0,0-1,0H36.92v.69h2a6.74,6.74,0,0,0,1.13,0v.94a9.27,9.27,0,0,0-1.24,0H34.09a11.47,11.47,0,0,0-1.18,0V7.84a6.85,6.85,0,0,0,1.09,0h1.91V7.2H34.53a8.62,8.62,0,0,0-1,0v-.9a6.85,6.85,0,0,0,1,0h1.37ZM38.72,2V1.43H33.35V2ZM36.09,4.15a6.06,6.06,0,0,1-.46.76c.75,0,1.23,0,1.43-.06l.7,0a6.11,6.11,0,0,0-.5-.45l.43-.21Z"/><path class="cls-1" d="M45.87,4.42a4.29,4.29,0,0,1-3.1,4.36,3,3,0,0,0-.77-1c1.84-.58,2.57-1.5,2.63-3.32H42.36a7.74,7.74,0,0,0-1.19,0V3.36a6.88,6.88,0,0,0,1.21.06h5.47a6.88,6.88,0,0,0,1.21-.06V4.47a7.74,7.74,0,0,0-1.19,0Zm1.41-2.29a9.33,9.33,0,0,0-1.19,0H43.3a9.34,9.34,0,0,0-1.18,0V1a5.51,5.51,0,0,0,1.2.07h2.75A5.56,5.56,0,0,0,47.28,1ZM47.82.38a6.39,6.39,0,0,1,.83,1.48l-.7.26A6.61,6.61,0,0,0,47.13.63Zm1.34,1.33A7,7,0,0,0,48.35.26L49,0a5.63,5.63,0,0,1,.82,1.42Z"/><path class="cls-1" d="M55.67,2.51V1.73a6.54,6.54,0,0,0,0-.93h1.2a3.65,3.65,0,0,0,0,.62c0,.35,0,.71,0,1.09h.59a6,6,0,0,0,1.23-.07V3.58a10.17,10.17,0,0,0-1.21,0h-.62a6.44,6.44,0,0,1-.46,3,4.5,4.5,0,0,1-2.78,2.18,2.69,2.69,0,0,0-.7-1,3.48,3.48,0,0,0,2.52-1.87,6,6,0,0,0,.3-2.33H53.24V4.93a7.42,7.42,0,0,0,0,.79H52.06a5.72,5.72,0,0,0,0-.81V3.54h-.58a10,10,0,0,0-1.19,0V2.44a5.73,5.73,0,0,0,1.21.07h.56V1.57a4,4,0,0,0-.05-.83h1.22a5.81,5.81,0,0,0,0,.79v1ZM57.46.26a5.83,5.83,0,0,1,.64,1.46l-.64.19A5.75,5.75,0,0,0,56.82.44ZM58.61,1.6A6.33,6.33,0,0,0,58,.19l.6-.19a5.71,5.71,0,0,1,.63,1.4Z"/><path class="cls-1" d="M67.45,1.36a3.47,3.47,0,0,0-.34.32A16.79,16.79,0,0,1,64.9,3.61v4a6.59,6.59,0,0,0,0,1H63.64a6.08,6.08,0,0,0,0-1V4.34a15.2,15.2,0,0,1-3.34,1.52,3.48,3.48,0,0,0-.62-1.07,13.78,13.78,0,0,0,4.91-2.43A7.57,7.57,0,0,0,66.38.61Z"/><path class="cls-1" d="M69.71,7.08a9.22,9.22,0,0,0,2.77-.69A6.3,6.3,0,0,0,75.25,4.1a7.66,7.66,0,0,0,1-1.87,3.75,3.75,0,0,0,1,.91,8.21,8.21,0,0,1-3,3.67,10,10,0,0,1-3.56,1.4,4.77,4.77,0,0,0-.62.16Zm.79-5.81a13,13,0,0,1,2.42,1.81l-.81,1a9.57,9.57,0,0,0-2.38-1.9Z"/><path class="cls-1" d="M83.73,4.65a1.12,1.12,0,1,1-1.12-1.11A1.11,1.11,0,0,1,83.73,4.65Z"/><path class="cls-1" d="M90.64,2.72a7.65,7.65,0,0,1,1.17.94A10.24,10.24,0,0,0,93.41,2H91A9.81,9.81,0,0,1,88.42,4a2.49,2.49,0,0,0-.63-.78,7.17,7.17,0,0,0,3.32-3l1.1.27c-.24.35-.33.47-.49.68h1.92a4.72,4.72,0,0,0,.82,0l.56.59c-.12.14-.12.15-.34.43a12.31,12.31,0,0,1-2.82,2.71h3a5.3,5.3,0,0,0,.78,0,5.3,5.3,0,0,0-.05.86V8a5.85,5.85,0,0,0,.06.93H94.62v-.5H91.05V9H90A8.7,8.7,0,0,0,90,8V6a17.21,17.21,0,0,1-1.78.84,2.53,2.53,0,0,0-.59-.94,13.84,13.84,0,0,0,2.24-1c.3-.17.61-.37,1.11-.7a6.44,6.44,0,0,0-1.14-1ZM91,7.57h3.59V5.72H91Z"/><path class="cls-1" d="M100.69,1.16a4.81,4.81,0,0,0,0-.85h1.22a6.25,6.25,0,0,0,0,.85v.7h2.59c.43,0,.8,0,1.11-.05V2.92a9.92,9.92,0,0,0-1.11-.06h-2.59V4.47h1.91a6,6,0,0,0,.85,0,5.57,5.57,0,0,0,0,.88V7.89a6.84,6.84,0,0,0,.06,1h-1.13V8.44H99.23v.48H98.08a7.42,7.42,0,0,0,.06-1V5.31a5.73,5.73,0,0,0,0-.88,6.32,6.32,0,0,0,.85,0h1.75V2.86H98.28a9.11,9.11,0,0,0-1.12.06V1.81c.31,0,.69.05,1.12.05h2.41Zm-1.46,6.3h4.2v-2h-4.2Z"/><path class="cls-1" d="M110.74,5.67l-.74,0c-1,0-1.4.08-1.55.11l-.14-.91.41,0h.7a4.86,4.86,0,0,0,.45-.78h-1.74a15.73,15.73,0,0,1-.32,2.67,6.24,6.24,0,0,1-.76,2.08,4.45,4.45,0,0,0-.83-.85,5,5,0,0,0,.68-1.83,22.87,22.87,0,0,0,.31-4.59,10.1,10.1,0,0,0,0-1.07,7.67,7.67,0,0,0,1.22.06h5.14a7.17,7.17,0,0,0,1-.05,5.94,5.94,0,0,0,0,.75V2.2a4.44,4.44,0,0,0,0,.67c-.35,0-.61,0-1,0h-5.37v.5h5.48a6.7,6.7,0,0,0,1.08,0V4.2a6.49,6.49,0,0,0-1,0h-.61c.36.33.78.76,1.42,1.46l-.85.49-.48-.6-1.47.11v.77h1.67a6,6,0,0,0,.94,0v.9a8.65,8.65,0,0,0-.95,0h-1.66v.69h2.06a6.82,6.82,0,0,0,1.13,0v.94a9.46,9.46,0,0,0-1.24,0h-4.77a11.33,11.33,0,0,0-1.18,0V7.84a6.63,6.63,0,0,0,1.08,0h1.92V7.2h-1.39a8.62,8.62,0,0,0-1,0v-.9a6.85,6.85,0,0,0,1,0h1.38ZM113.54,2V1.43h-5.36V2Zm-2.62,2.11a7.54,7.54,0,0,1-.46.76c.75,0,1.22,0,1.42-.06l.7,0a5.81,5.81,0,0,0-.49-.45l.43-.21Z"/><path class="cls-1" d="M115.78,3.94a4,4,0,0,0,.75,0h.7a4.05,4.05,0,0,0,.71,0,8.77,8.77,0,0,0,0,1V7a1.18,1.18,0,0,0,.69.63,4.68,4.68,0,0,0,1.89.25,32.83,32.83,0,0,0,4-.19,4.06,4.06,0,0,0-.28,1.09c-.85,0-2.18.06-3.21.06a8.51,8.51,0,0,1-2.47-.2,2,2,0,0,1-1.18-.83,8.5,8.5,0,0,1-1,.87L116,8.9l-.46-1.06a5.53,5.53,0,0,0,1.35-.92v-2h-.51a3.22,3.22,0,0,0-.63,0Zm.79-3.46a13.47,13.47,0,0,1,1.63,1.69l-.8.75a11.46,11.46,0,0,0-1.59-1.77Zm2.93,1.87a6.13,6.13,0,0,1-.52.74,3,3,0,0,0-.86-.55,4.68,4.68,0,0,0,1.15-2l1,.22-.17.41a2.53,2.53,0,0,1-.15.36h.85V1.23a4.66,4.66,0,0,0,0-.87h1.08a5.83,5.83,0,0,0,0,.87v.25h1.1a6.31,6.31,0,0,0,1-.06v1a8.39,8.39,0,0,0-1,0h-1.14v.86h1.55a6.28,6.28,0,0,0,.87,0v1a8.44,8.44,0,0,0-.87,0h-4.26a6.85,6.85,0,0,0-.79,0v-1a6,6,0,0,0,.84,0h1.67V2.35Zm.19,4.93c-.42,0-.59,0-.83,0a7.93,7.93,0,0,0,0-1V5.42a4.89,4.89,0,0,0,0-.84,8.8,8.8,0,0,0,1,0h2.79a8.55,8.55,0,0,0,1,0,7.14,7.14,0,0,0,0,1v.88a5.79,5.79,0,0,0,0,.89c-.28,0-.49,0-.93,0Zm.14-.9h2.8V5.52h-2.8Z"/><path class="cls-1" d="M126.11,1.65a5.83,5.83,0,0,0-.82,0v-1a9.45,9.45,0,0,0,1,0h2.91a8.91,8.91,0,0,0,1,0v1a5.48,5.48,0,0,0-.82,0h-.06V3.58h.17a5.57,5.57,0,0,0,.82,0v1a5.9,5.9,0,0,0-.83,0h-.16V7.81a7.94,7.94,0,0,0,.05,1.09h-1.12a7.45,7.45,0,0,0,.06-1.07V4.54h-1.05a10.49,10.49,0,0,1-.25,2.13A5.63,5.63,0,0,1,125.74,9a3.66,3.66,0,0,0-.79-.78,5.07,5.07,0,0,0,1.27-3.64H126a4.91,4.91,0,0,0-.83,0V3.53a4.77,4.77,0,0,0,.83.05h.25V1.65Zm1.1,1.93h1V1.65h-1ZM133.92,6a2.82,2.82,0,0,0-.39.38,11.06,11.06,0,0,1-3.36,2.57,4.59,4.59,0,0,0-.64-.9,8,8,0,0,0,3.57-2.79ZM133.33,1c-.1.07-.21.18-.75.68a9.86,9.86,0,0,1-2.26,1.53,3.37,3.37,0,0,0-.59-.92,7.34,7.34,0,0,0,1.91-1.16,4.57,4.57,0,0,0,.81-.81Zm.31,2.44a3.17,3.17,0,0,0-.4.37,9.85,9.85,0,0,1-1.52,1.31,9.73,9.73,0,0,1-1.37.8,3.52,3.52,0,0,0-.59-.94,7.46,7.46,0,0,0,2.29-1.41,4.28,4.28,0,0,0,.75-.84Z"/><path class="cls-1" d="M136.85,3.72a11,11,0,0,0,4.09-1.66l.75,1c-.07,0-.35.16-.84.41a16.27,16.27,0,0,1-4,1.29V6a.62.62,0,0,0,0,.12c0,.55,0,.76.17.89s.69.25,1.6.25a18.28,18.28,0,0,0,2.17-.15,6,6,0,0,0,1.07-.23l.05,1.25c-.19,0-.24,0-1.23.1-.55.05-1.73.11-2.3.11a3.74,3.74,0,0,1-2.19-.4,1.33,1.33,0,0,1-.46-1,6.4,6.4,0,0,1,0-.86V1.82a6.24,6.24,0,0,0,0-.86h1.25a4.53,4.53,0,0,0-.05.87ZM141.3.52A6.1,6.1,0,0,1,142.23,2l-.67.3a6.29,6.29,0,0,0-.93-1.43Zm1.4,1.19a6.76,6.76,0,0,0-.9-1.39l.65-.3a5.4,5.4,0,0,1,.91,1.36Z"/><path class="cls-1" d="M144.91,3.11a14.91,14.91,0,0,1,2.49,1.28l-.58,1.05a11,11,0,0,0-2.53-1.36Zm-.42,4.2a8.45,8.45,0,0,0,2.71-.61A6.47,6.47,0,0,0,151,2.57a4.23,4.23,0,0,0,1,.83c-1.16,2.84-3.14,4.37-6.48,5a4.15,4.15,0,0,0-.66.16ZM145.63.85a15.61,15.61,0,0,1,2.49,1.21l-.6,1A10.74,10.74,0,0,0,145,1.81ZM150.5.66a6.21,6.21,0,0,1,1,1.38l-.65.35a6,6,0,0,0-1-1.4ZM152,1.8a6.5,6.5,0,0,0-1-1.36l.63-.33a5.49,5.49,0,0,1,1,1.32Z"/><path class="cls-1" d="M156.71,8.8a5.21,5.21,0,0,0,.06-.83V5.53a2.45,2.45,0,0,1-.29.18,14.65,14.65,0,0,1-2.63,1,4.09,4.09,0,0,0-.56-1,11.43,11.43,0,0,0,2.61-.87,9.77,9.77,0,0,0,2.89-2h-.19l-3.43,0a6.49,6.49,0,0,0-1,0V1.82a4.55,4.55,0,0,0,1,.09h1.57V1.14a3.57,3.57,0,0,0-.05-.67H158a3.65,3.65,0,0,0,0,.65V1.9h1.58a1.79,1.79,0,0,0,.63-.09l.55.64a2.3,2.3,0,0,0-.42.4,12,12,0,0,1-1.9,1.75,15.68,15.68,0,0,1,3.26,1.47l-.62,1a16.57,16.57,0,0,0-2.85-1.49l-.23-.11c0,.12,0,.38,0,.46V8a3.9,3.9,0,0,0,.05.83Z"/><path class="cls-1" d="M169.94,8.51a18,18,0,0,0-2.87-2.78,11,11,0,0,1-3.56,2.71,3.72,3.72,0,0,0-.76-1,7.54,7.54,0,0,0,1.87-1,9,9,0,0,0,3.14-3.81l.11-.24-3.1.06a7.09,7.09,0,0,0-1,.07l0-1.2a3.91,3.91,0,0,0,.83.06h.22l3.29-.05a2.18,2.18,0,0,0,.84-.1l.61.64a2.06,2.06,0,0,0-.3.5,12.21,12.21,0,0,1-1.45,2.58,16.69,16.69,0,0,1,1.73,1.36c.23.2.23.2,1.36,1.3Z"/><path class="cls-1" d="M177.26,4.65a1.12,1.12,0,1,1-1.12-1.11A1.11,1.11,0,0,1,177.26,4.65Z"/><path class="cls-1" d="M184.17,2.72a7.65,7.65,0,0,1,1.17.94A10.24,10.24,0,0,0,186.94,2h-2.46A9.81,9.81,0,0,1,182,4a2.49,2.49,0,0,0-.63-.78,7.17,7.17,0,0,0,3.32-3l1.1.27c-.24.35-.33.47-.49.68h1.92a4.91,4.91,0,0,0,.83,0l.55.59c-.12.14-.12.15-.34.43a12.31,12.31,0,0,1-2.82,2.71h3a5.3,5.3,0,0,0,.78,0,5.3,5.3,0,0,0-.05.86V8a5.85,5.85,0,0,0,.06.93h-1.07v-.5h-3.57V9H183.5a8.7,8.7,0,0,0,.05-.93V6a17.21,17.21,0,0,1-1.78.84,2.53,2.53,0,0,0-.59-.94,13.84,13.84,0,0,0,2.24-1c.3-.17.61-.37,1.11-.7a6.44,6.44,0,0,0-1.14-1Zm.4,4.85h3.59V5.72h-3.59Z"/><path class="cls-1" d="M194.22,1.16a4.81,4.81,0,0,0-.05-.85h1.22a6.25,6.25,0,0,0,0,.85v.7h2.59c.43,0,.8,0,1.11-.05V2.92a9.92,9.92,0,0,0-1.11-.06h-2.59V4.47h1.91a6,6,0,0,0,.85,0,5.57,5.57,0,0,0,0,.88V7.89a6.84,6.84,0,0,0,.06,1H197V8.44h-4.22v.48h-1.15a7.42,7.42,0,0,0,.06-1V5.31a5.73,5.73,0,0,0,0-.88,6.32,6.32,0,0,0,.85,0h1.75V2.86h-2.41a9.11,9.11,0,0,0-1.12.06V1.81c.31,0,.69.05,1.12.05h2.41Zm-1.46,6.3H197v-2h-4.2Z"/><path class="cls-1" d="M204.27,5.67l-.74,0c-1,0-1.4.08-1.55.11l-.14-.91.41,0h.7a4.86,4.86,0,0,0,.45-.78h-1.74a15.73,15.73,0,0,1-.32,2.67,6.24,6.24,0,0,1-.76,2.08,4.45,4.45,0,0,0-.83-.85,5,5,0,0,0,.68-1.83,22.87,22.87,0,0,0,.31-4.59,10.1,10.1,0,0,0-.05-1.07,7.67,7.67,0,0,0,1.22.06h5.14a7.17,7.17,0,0,0,1-.05,5.94,5.94,0,0,0,0,.75V2.2a4.44,4.44,0,0,0,0,.67c-.35,0-.61,0-1,0H201.7v.5h5.48a6.7,6.7,0,0,0,1.08,0V4.2a6.49,6.49,0,0,0-1,0h-.61c.36.33.78.76,1.42,1.46l-.85.49-.48-.6-1.47.11v.77h1.67a6,6,0,0,0,.94,0v.9a8.57,8.57,0,0,0-.94,0h-1.67v.69h2.06a6.82,6.82,0,0,0,1.13,0v.94a9.46,9.46,0,0,0-1.24,0h-4.77a11.33,11.33,0,0,0-1.18,0V7.84a6.63,6.63,0,0,0,1.08,0h1.92V7.2h-1.39a8.62,8.62,0,0,0-1,0v-.9a6.85,6.85,0,0,0,1,0h1.38ZM207.08,2V1.43h-5.37V2Zm-2.63,2.11a7.54,7.54,0,0,1-.46.76c.75,0,1.22,0,1.42-.06l.7,0a5.81,5.81,0,0,0-.49-.45l.43-.21Z"/><path class="cls-1" d="M209.31,3.94a4,4,0,0,0,.75,0h.7a4.05,4.05,0,0,0,.71,0,8.77,8.77,0,0,0,0,1V7a1.18,1.18,0,0,0,.69.63,4.71,4.71,0,0,0,1.9.25,32.76,32.76,0,0,0,4-.19,4.06,4.06,0,0,0-.28,1.09c-.85,0-2.18.06-3.21.06a8.51,8.51,0,0,1-2.47-.2,2,2,0,0,1-1.18-.83,8.5,8.5,0,0,1-1,.87l-.31.24-.46-1.06a5.53,5.53,0,0,0,1.35-.92v-2h-.51a3.22,3.22,0,0,0-.63,0ZM210.1.48a13.47,13.47,0,0,1,1.63,1.69l-.8.75a11.46,11.46,0,0,0-1.59-1.77ZM213,2.35a6.13,6.13,0,0,1-.52.74,3,3,0,0,0-.86-.55,4.68,4.68,0,0,0,1.15-2l1,.22-.17.41a2.53,2.53,0,0,1-.15.36h.85V1.23a4.66,4.66,0,0,0-.05-.87h1.08a5.83,5.83,0,0,0,0,.87v.25h1.1a6.31,6.31,0,0,0,1-.06v1a8.39,8.39,0,0,0-1,0H215.3v.86h1.55a6.28,6.28,0,0,0,.87,0v1a8.44,8.44,0,0,0-.87,0h-4.26a6.85,6.85,0,0,0-.79,0v-1a6,6,0,0,0,.84,0h1.67V2.35Zm.19,4.93c-.42,0-.59,0-.83,0a7.93,7.93,0,0,0,0-1V5.42a4.89,4.89,0,0,0,0-.84,8.8,8.8,0,0,0,1,0h2.8a8.36,8.36,0,0,0,1,0,7.14,7.14,0,0,0,0,1v.88a5.79,5.79,0,0,0,0,.89c-.28,0-.49,0-.93,0Zm.14-.9h2.8V5.52h-2.8Z"/><path class="cls-1" d="M219.64,1.65a5.83,5.83,0,0,0-.82,0v-1a9.45,9.45,0,0,0,1,0h2.91a8.91,8.91,0,0,0,1,0v1a5.48,5.48,0,0,0-.82,0h-.06V3.58H223a5.57,5.57,0,0,0,.82,0v1a5.9,5.9,0,0,0-.83,0h-.16V7.81a7.94,7.94,0,0,0,.05,1.09h-1.12a7.45,7.45,0,0,0,.06-1.07V4.54h-1.05a10.49,10.49,0,0,1-.25,2.13A5.63,5.63,0,0,1,219.27,9a3.66,3.66,0,0,0-.79-.78,5.07,5.07,0,0,0,1.27-3.64h-.24a4.91,4.91,0,0,0-.83,0V3.53a4.77,4.77,0,0,0,.83.05h.25V1.65Zm1.1,1.93h1V1.65h-1ZM227.45,6a2.82,2.82,0,0,0-.39.38,11.06,11.06,0,0,1-3.36,2.57,4.59,4.59,0,0,0-.64-.9,8,8,0,0,0,3.57-2.79ZM226.86,1c-.1.07-.21.18-.75.68a9.65,9.65,0,0,1-2.26,1.53,3.59,3.59,0,0,0-.58-.92,7.46,7.46,0,0,0,1.9-1.16A4.57,4.57,0,0,0,226,.35Zm.31,2.44a3.17,3.17,0,0,0-.4.37,9.85,9.85,0,0,1-1.52,1.31,9.73,9.73,0,0,1-1.37.8,3.52,3.52,0,0,0-.59-.94,7.46,7.46,0,0,0,2.29-1.41,4.28,4.28,0,0,0,.75-.84Z"/><path class="cls-1" d="M232.93,4.42a4.29,4.29,0,0,1-3.1,4.36,3,3,0,0,0-.77-1c1.84-.58,2.57-1.5,2.63-3.32h-2.27a7.74,7.74,0,0,0-1.19,0V3.36a6.88,6.88,0,0,0,1.21.06h5.47a6.88,6.88,0,0,0,1.21-.06V4.47a7.74,7.74,0,0,0-1.19,0Zm1.41-2.29a9.33,9.33,0,0,0-1.19,0h-2.79a9.34,9.34,0,0,0-1.18,0V1a5.51,5.51,0,0,0,1.2.07h2.75A5.56,5.56,0,0,0,234.34,1Zm.54-1.75a6.39,6.39,0,0,1,.83,1.48l-.7.26a6.61,6.61,0,0,0-.82-1.49Zm1.34,1.33a7.5,7.5,0,0,0-.8-1.45l.67-.24a5.63,5.63,0,0,1,.82,1.42Z"/><path class="cls-1" d="M242.73,2.51V1.73a6.54,6.54,0,0,0,0-.93h1.2a3.65,3.65,0,0,0,0,.62c0,.35,0,.71,0,1.09h.59a6,6,0,0,0,1.23-.07V3.58a10.17,10.17,0,0,0-1.21,0h-.62a6.44,6.44,0,0,1-.46,3,4.51,4.51,0,0,1-2.77,2.18,2.86,2.86,0,0,0-.71-1,3.48,3.48,0,0,0,2.52-1.87,6,6,0,0,0,.3-2.33H240.3V4.93a7.42,7.42,0,0,0,0,.79h-1.21a5.72,5.72,0,0,0,0-.81V3.54h-.58a10,10,0,0,0-1.19,0V2.44a5.73,5.73,0,0,0,1.21.07h.56V1.57a4,4,0,0,0,0-.83h1.22a5.81,5.81,0,0,0,0,.79v1ZM244.52.26a5.83,5.83,0,0,1,.64,1.46l-.64.19a5.75,5.75,0,0,0-.64-1.47Zm1.15,1.34A5.91,5.91,0,0,0,245,.19l.6-.19a5.71,5.71,0,0,1,.63,1.4Z"/><path class="cls-1" d="M254.51,1.36a3.47,3.47,0,0,0-.34.32A16.79,16.79,0,0,1,252,3.61v4a6.59,6.59,0,0,0,0,1H250.7a6.08,6.08,0,0,0,.05-1V4.34a15.2,15.2,0,0,1-3.34,1.52,3.29,3.29,0,0,0-.62-1.07,13.78,13.78,0,0,0,4.91-2.43A7.57,7.57,0,0,0,253.44.61Z"/><path class="cls-1" d="M256.77,7.08a9.15,9.15,0,0,0,2.77-.69,6.25,6.25,0,0,0,2.77-2.29,7.66,7.66,0,0,0,1-1.87,3.75,3.75,0,0,0,1,.91,8.21,8.21,0,0,1-3,3.67,10,10,0,0,1-3.56,1.4,4.77,4.77,0,0,0-.62.16Zm.79-5.81A12.67,12.67,0,0,1,260,3.08l-.81,1a9.57,9.57,0,0,0-2.38-1.9Z"/><path class="cls-2" d="M110.24,29.6v.66H98.53V28.69h4.93V26.9H101a11.71,11.71,0,0,1-.78,1.08h0a.81.81,0,0,1-.61.25A.91.91,0,0,1,99,28h0l-.61-.7a8.94,8.94,0,0,0,2.38-3.78l.84.35h0a.88.88,0,0,1,.48,1.06l-.14.41h1.55V23.61h1a.9.9,0,0,1,.82,1h0v.72h3.52a.86.86,0,0,1,.83.91v.7h-4.35v1.79h4.18A.86.86,0,0,1,110.24,29.6Z"/><path class="cls-2" d="M95.67,24.3a.9.9,0,0,0-1.1.3h0l-.49.91a20.09,20.09,0,0,1,3.14,2.08l1.09-1.53A15.17,15.17,0,0,0,95.67,24.3Z"/><path class="cls-2" d="M94.36,38.79l.6.51a7.6,7.6,0,0,0,2-2c1,1.65,3.39,2,4.71,2h8a.8.8,0,0,0,.82-.85v-.86h-8.72a6.46,6.46,0,0,1-2.4-.57,2.53,2.53,0,0,1-1.53-1.69V30.5a.88.88,0,0,0-.88-.88H94.3v1.74h1.82v4.42c0,.61-.69,1.29-1.48,1.81h0A.89.89,0,0,0,94.36,38.79Z"/><path class="cls-2" d="M120.48,28a.83.83,0,0,1-.09-.39.9.9,0,0,1,.49-.8,16.51,16.51,0,0,0,4.64-3.35l.71.69h0a.91.91,0,0,1,0,1.26h0A21.73,21.73,0,0,1,121,29l-.49-.9Z"/><path class="cls-2" d="M120.7,38.38a.44.44,0,0,1-.06-.16.87.87,0,0,1,.46-1h0a13,13,0,0,0,5.21-4.53l.91.68h0a.88.88,0,0,1,0,1.25h0a19.91,19.91,0,0,1-6,4.71l-.51-.93Z"/><path class="cls-2" d="M120.52,33.43a.86.86,0,0,1,.23-1.22h0a14.73,14.73,0,0,0,4.47-4l.67.53h0A.87.87,0,0,1,126,30h0a19.1,19.1,0,0,1-5,4.14l-.42-.71Z"/><path class="cls-2" d="M120.39,29.76H119V25.43h1.36V24.6a.88.88,0,0,0-.89-.88h-7.75v1.71h1.6v4.33h-1.94V31.5h1.94v.43a7.58,7.58,0,0,1-1.72,5.41h0a.91.91,0,0,0-.23.6,1,1,0,0,0,.42.75h0l.76.61c.76-.88,2.54-2.65,2.54-7.3v-.5h2.18v7.8H119V31.5h2.25v-.85A.89.89,0,0,0,120.39,29.76Zm-3.09,0h-2.18V25.43h2.18Z"/><path class="cls-2" d="M108.49,31.36h-9v5.15h9.86V32.27A.87.87,0,0,0,108.49,31.36ZM107.58,35h-6.33V32.89h6.33Z"/><path class="cls-2" d="M53.51,27.77a10.09,10.09,0,0,0-1.65,0V26h7.78v-.84a1,1,0,0,0-.91-1H51.86v-1a1,1,0,0,0-.92-1H50v2H44.28V26H50v2.13a8.42,8.42,0,0,0-3.48,2.12,6.36,6.36,0,0,0-2,4.23,3.7,3.7,0,0,0,1.9,3.35,2.88,2.88,0,0,0,3.22-.19c1.14-.95,4.54-5.95,5.62-7.55A3.31,3.31,0,0,1,58,33.84c0,1.29-1.59,3.16-5,3.41a1,1,0,0,0-.78.88v1.14c5.55,0,7.62-3.32,7.62-5.43C59.81,31.46,59.15,28.23,53.51,27.77Zm-5,8.3a1.24,1.24,0,0,1-1.3,0,1.67,1.67,0,0,1-.88-1.56,4.35,4.35,0,0,1,1.43-2.77A6.49,6.49,0,0,1,50,30.24v4A14.92,14.92,0,0,1,48.54,36.07Zm3.32-4.34V29.78a8.75,8.75,0,0,1,1.37,0Z"/><path class="cls-2" d="M87.9,28.55a8.62,8.62,0,0,0-5.19,1.84c.31-1,.65-2.3,1-3.36h8.59v-.84a1,1,0,0,0-.92-1H84.29l.58-1.92a1,1,0,0,0-.49-1.09l-1-.36-1,3.37H77.52V27h4.23l-1.93,6.49,1.62.89S84,30.54,87.9,30.54c2.16,0,3.26,1,3.26,3.06S88.47,37,83.9,37.2a1,1,0,0,0-.89,1v1c8.67-.1,10-3.55,10-5.62C93,30.44,91.09,28.55,87.9,28.55Z"/><path class="cls-2" d="M66.31,35.27c-.14.15-.33.33-.51.32a.7.7,0,0,1-.47-.28c-1.24-1.59-1.9-6.82-2.07-10.3a1,1,0,0,0-.9-.86l-1,0c0,1,.34,9.6,2.54,12.41a2.63,2.63,0,0,0,1.8,1,2.39,2.39,0,0,0,1.9-.94,5.39,5.39,0,0,0,1.09-1.91l-1.58-1.5A3.23,3.23,0,0,1,66.31,35.27Z"/><path class="cls-2" d="M74.6,25.11A.78.78,0,0,0,73.48,25l-.77.74a13.75,13.75,0,0,1,2.53,8.7l1.83.1A16,16,0,0,0,74.6,25.11Z"/><path class="cls-2" d="M141,25a.9.9,0,0,0-.89-1H129.59v2H141Z"/><path class="cls-2" d="M142.68,28.19H127.84v2h6.78c0,2.32,0,2.71-.25,3.48a5.58,5.58,0,0,1-1.54,2.44,6.25,6.25,0,0,1-3.06.77,1,1,0,0,0-1,1v.93h1.27a8.27,8.27,0,0,0,3.57-1,6.92,6.92,0,0,0,2.4-2.81,12.43,12.43,0,0,0,.76-4.78h6.74v-1A.94.94,0,0,0,142.68,28.19Z"/><path class="cls-2" d="M163.38,33.09l-.24-1a1,1,0,0,1,.78-1.05c3.52-.82,5.67-1.6,7.61-3.22a27,27,0,0,0,3.86-4.62l.5-.67.73.47a1,1,0,0,1,.45.83c0,.47-.28,1-1.44,2.57-.81,1.08-1.55,1.93-2.35,2.81v9.59h-2.2V30.41a15.1,15.1,0,0,1-4,1.77A33.55,33.55,0,0,1,163.38,33.09Z"/><path class="cls-2" d="M141.54,26V23.1h1.08c.51,0,.76.3.76.91v2Z"/><path class="cls-2" d="M143.89,26V23.1H145c.5,0,.75.3.75.91v2Z"/><path class="cls-2" d="M178.86,23.84h5.84q.9,0,.9.75v1.09h-6.74Z"/><path class="cls-2" d="M160.11,26V23.1h1.09c.5,0,.76.3.76.91v2Z"/><path class="cls-2" d="M162.46,26V23.1h1.09c.5,0,.75.3.75.91v2Z"/><path class="cls-2" d="M150.38,39.06a33.21,33.21,0,0,0,4.05-.63,6.29,6.29,0,0,0,4.42-3.56,5.75,5.75,0,0,0,.76-3v-3h3V27.58a.77.77,0,0,0-.88-.76h-2.14V24a.84.84,0,0,0-.9-.89h-1.24v3.76h-5.56V24c0-.61-.26-.91-.76-.91H149.8v3.76h-3.1v2h3.1v3.49h2.11V28.82h5.56v3a4.16,4.16,0,0,1-.85,2.88c-1.24,1.48-2.5,2-5.5,2.25a1,1,0,0,0-.9,1Z"/><path class="cls-2" d="M191.2,25.74s-.92,0-.92,0-1,5.73-3.94,8C184.61,35,183,36.05,178,37l.22,1.84a20.64,20.64,0,0,0,4-.68c3.13-1,5.69-2.19,7.25-4.51a16,16,0,0,0,1.86-3.85A9.63,9.63,0,0,0,192,26.6.83.83,0,0,0,191.2,25.74Z"/><path class="cls-2" d="M207.71,25.1v-.79a.8.8,0,0,0-.8-.8h-5.39v-.39a.79.79,0,0,0-.8-.79h-.91v1.18h-6.19V25.1h6.19v.7h-5.2v7h8.45v.7h-9.75v1.59h3.62l-.61.83a16.57,16.57,0,0,1,2.31,2l1.07-1.48c-.58-.59-1.09-1-1.48-1.38h4.84v2.18h-2.35a.79.79,0,0,0-.8.79v.8h3.33a1.59,1.59,0,0,0,1.59-1.59V35.05h2.88v-.79a.8.8,0,0,0-.8-.8h-2.08v-.7h1.89V26.6a.79.79,0,0,0-.79-.8h-4.41v-.7Zm-7.9,6.06h-3.5v-1h3.5Zm0-2.8h-3.5v-1h3.5Zm5.21,2.8h-3.5v-1H205Zm0-3.76v1h-3.5v-1Z"/><path class="cls-2" d="M214.5,22.83h-5.83v16h1.77V30h4.85V23.62A.79.79,0,0,0,214.5,22.83Zm-1,5.63h-3.09V27.23h3.09Zm0-2.82h-3.09V24.42h3.09Z"/><path class="cls-2" d="M222.22,22.83h-5.69V30h4.72v7.19h-2.67a.79.79,0,0,0-.8.79v.8h3.65A1.59,1.59,0,0,0,223,37.23V23.62A.8.8,0,0,0,222.22,22.83Zm-3.92,1.59h2.95v1.22H218.3Zm0,4V27.23h2.95v1.23Z"/><path class="cls-2" d="M237.74,25.62h-1.88a8.52,8.52,0,0,0,1.42-2.08.8.8,0,0,0-.41-1l-.9-.36a13.32,13.32,0,0,1-2.44,3.36l.28.12H232.6l.09-.12a18.33,18.33,0,0,0-1.87-2.95.8.8,0,0,0-1.07-.11l-.73.68a25.75,25.75,0,0,1,1.74,2.5h-2.2l.09-.12a19.05,19.05,0,0,0-1.87-2.95.79.79,0,0,0-1.06-.11l-.74.68a25.75,25.75,0,0,1,1.75,2.5h-3v4.21h1.77V27.21h11.25v2.62h1.77V26.41A.79.79,0,0,0,237.74,25.62Z"/><path class="cls-2" d="M238.56,33.7a.79.79,0,0,0-.79-.8H232.1v-.7a19.27,19.27,0,0,0,3.15-2.28l.4-.41.06-.06,0-.08a.75.75,0,0,0,.13-.42.8.8,0,0,0-.8-.8h-8.64v1.77h6.15c-.45.32-.89.61-1.26.84h-1V32.9h-6.62v1.59h6.62v2.74h-2.42a.79.79,0,0,0-.79.79v.8h3.39a1.59,1.59,0,0,0,1.58-1.59V34.49h6.46Z"/><path class="cls-2" d="M250.41,34.61a15.78,15.78,0,0,0,2.09-4.22,7.36,7.36,0,0,0,1.39,1.53L255,30.36a8.36,8.36,0,0,1-2.42-4.6h1.7V25a.8.8,0,0,0-.8-.8h-3.11v-1a.79.79,0,0,0-.79-.79h-1v1.83h-3.9v1.59h2c-.15.88-.75,3.45-2.3,4.76l.65.9a.74.74,0,0,0,1.1,0q.22-.26.42-.51a16.08,16.08,0,0,0,1.51,3.53,12.28,12.28,0,0,1-4.3,3l.46,1a.88.88,0,0,0,1.11.43l.05,0a13.82,13.82,0,0,0,3.77-2.8,11.44,11.44,0,0,0,4,3.21.8.8,0,0,0,1-.48l.37-1A9.6,9.6,0,0,1,250.41,34.61Zm-1.08-1.69a13.81,13.81,0,0,1-1.45-4.5,16.77,16.77,0,0,0,.65-2.66h2.21a15.34,15.34,0,0,0,.58,2.27A13.43,13.43,0,0,1,249.33,32.92Z"/><path class="cls-2" d="M245.5,32.47c-.49-1.6-1.66-4.26-2-5.11v-.15h1.72v-.8a.79.79,0,0,0-.8-.79h-.92V23.06a.79.79,0,0,0-.79-.79h-1v3.35h-2.32v1.59h2.25c-1.06,5-2.51,7.3-2.76,7.58l.87.76a.8.8,0,0,0,1-.25,6.82,6.82,0,0,0,1-2v5.49h1.76V31.9c.2.53.38,1,.51,1.45Z"/><path class="cls-2" d="M23.25,22.21a1.6,1.6,0,0,0,0,3.19h5.62L22,36.46a.69.69,0,0,0-.09.34.61.61,0,0,0,.08.32.66.66,0,0,0,.56.34h6.62a.28.28,0,0,1,.29.29.29.29,0,0,1-.29.29H21.68C21,35.5,18.05,24.21,18,23.83c-.28-1-.9-1.62-1.71-1.62s-1.43.59-1.71,1.62c0,.12-1.29,4.9-2.23,8.51a.64.64,0,0,0,.35.75.65.65,0,0,0,.8-.2A2.5,2.5,0,1,1,13,34.71a.65.65,0,0,0-1.27-.08l-1,3.9a.65.65,0,1,0,1.25.32s.28-1.05.55-2.09a3.8,3.8,0,0,0,6.77-2.38,3.52,3.52,0,0,0-.06-.66c.73,2.77,1.33,5.07,1.35,5.13a.64.64,0,0,0,.62.49h8a1.59,1.59,0,0,0,0-3.18H23.71l6.87-11.07a.59.59,0,0,0,.1-.34.76.76,0,0,0-.08-.32A.68.68,0,0,0,30,24.1H23.24a.3.3,0,0,1,0-.6H33A7.27,7.27,0,0,1,33,38h-.38V24.75a.65.65,0,1,0-1.3,0V38.69a.64.64,0,0,0,.19.46.69.69,0,0,0,.46.2h1a8.57,8.57,0,1,0,0-17.14Zm-7.46,2c0-.15.19-.67.45-.67s.42.52.46.67,1.29,4.94,2.35,9a3.8,3.8,0,0,0-5-2.27C14.9,27.52,15.76,24.26,15.79,24.17Z"/></g></g></g></svg>