<svg xmlns="http://www.w3.org/2000/svg" viewBox="0 0 230.5 21"><defs><style>.cls-1{fill:#d3162c;}.cls-2{fill:#fff;}</style></defs><g id="レイヤー_2" data-name="レイヤー 2"><g id="header"><g id="nav"><rect class="cls-1" x="175.5" width="55" height="20.91"/><path class="cls-2" d="M188.73,7a12.69,12.69,0,0,1-2.93,4.08,5.24,5.24,0,0,0-.78-1,8.55,8.55,0,0,0-.52,1.15,14.66,14.66,0,0,1-1-1.86l0,1.15c0,.06,0,.86,0,1v3.81a14.1,14.1,0,0,0,.1,1.93h-1.8a12.28,12.28,0,0,0,.11-1.93v-4s0-.44.07-1.29a12.8,12.8,0,0,1-1.67,3.71,11,11,0,0,0-.87-1.78,14.19,14.19,0,0,0,2.27-4.85h-.62a8.77,8.77,0,0,0-1.21.07V5.52a8.3,8.3,0,0,0,1.21.06h.79V4.27a9.67,9.67,0,0,0-.08-1.63h1.77a12.79,12.79,0,0,0-.08,1.63V5.58h.63a5.29,5.29,0,0,0,1-.06V7.14c-.33,0-.59,0-.92,0h-.63a7,7,0,0,0,1.48,2.33,8.35,8.35,0,0,0,2.16-3.1Zm3.45,3.1a15.94,15.94,0,0,1-1.75,3.13,9.48,9.48,0,0,0,4,2.27,6.35,6.35,0,0,0-.89,1.72,11.18,11.18,0,0,1-4.21-2.7,11.42,11.42,0,0,1-4.11,2.73,5.74,5.74,0,0,0-1-1.53,9.38,9.38,0,0,0,4.05-2.45,12.67,12.67,0,0,1-1.64-3l1.44-.72A10.24,10.24,0,0,0,189.37,12a9.32,9.32,0,0,0,1.25-2.53ZM188.55,4a6.53,6.53,0,0,0-.07-1.18h1.87a5.92,5.92,0,0,0-.08,1.15V4.6h2.15a13.58,13.58,0,0,0,1.73-.09V6.24c-.52,0-1.06-.08-1.75-.08h-5.2a12.83,12.83,0,0,0-1.77.1V4.51a13.81,13.81,0,0,0,1.75.09h1.37Zm2.95,2.31a9.33,9.33,0,0,0,2.79,3.15,6.18,6.18,0,0,0-1,1.5,11.55,11.55,0,0,1-3.19-3.87Z"/><path class="cls-2" d="M208.15,9c-.09.16-.17.32-.44.92a13.35,13.35,0,0,1-2.33,3.59,13.24,13.24,0,0,0,4.79,1.9,5.87,5.87,0,0,0-1,1.78A21.21,21.21,0,0,1,206.35,16a12.71,12.71,0,0,1-2.22-1.37,11.74,11.74,0,0,1-2,1.34,18.11,18.11,0,0,1-2.82,1.21,5.27,5.27,0,0,0-1-1.59,12.56,12.56,0,0,0,4.59-2.1,10.74,10.74,0,0,1-2.1-3,17.26,17.26,0,0,1-1.48,3.13,14.07,14.07,0,0,1-2.66,3.23,5.87,5.87,0,0,0-1.34-1.34,11.71,11.71,0,0,0,3.35-4.42,16.7,16.7,0,0,0,1.25-4.76h-2.37a14.24,14.24,0,0,0-1.92.09V4.67a17.29,17.29,0,0,0,1.92.09h2.53c0-.36,0-1,0-1.35a4.86,4.86,0,0,0-.06-.85l2,0c0,.3-.09.68-.12,1.12,0,.6,0,.73-.08,1H208a17.36,17.36,0,0,0,1.93-.09V6.49A14.19,14.19,0,0,0,208,6.4h-6.33c-.1.76-.15,1-.26,1.7h4.46A8,8,0,0,0,207.27,8Zm-6.07.66a8.82,8.82,0,0,0,2,2.79,10.54,10.54,0,0,0,1.86-2.79Z"/><path class="cls-2" d="M214.5,7.82A14.41,14.41,0,0,1,212,9.17a7.69,7.69,0,0,0-.91-1.61,14.36,14.36,0,0,0,4-2.18,10.58,10.58,0,0,0,2.5-2.65h1.87a9.48,9.48,0,0,0,2.67,2.61,16.42,16.42,0,0,0,4.05,2.13,7.17,7.17,0,0,0-.87,1.76,17,17,0,0,1-2.7-1.43V9A11.24,11.24,0,0,0,221.13,9h-5.27A12.05,12.05,0,0,0,214.5,9Zm-.86,4.06a15.44,15.44,0,0,0-1.86.09V10.15a16.27,16.27,0,0,0,1.86.09h9.82a15.54,15.54,0,0,0,1.84-.09V12a15.3,15.3,0,0,0-1.84-.09H218a17.05,17.05,0,0,1-1.64,3c2.79-.15,2.79-.15,5-.39-.5-.55-.77-.83-1.65-1.75l1.56-.69a32.56,32.56,0,0,1,3.64,4.2l-1.51,1c-.52-.78-.68-1-1-1.37-1.31.17-2.25.28-2.84.34l-5.31.48a17.67,17.67,0,0,0-2,.22L212,15c.43,0,.7.05.92.05s.58,0,1.39-.06A16.23,16.23,0,0,0,216,11.88Zm7.47-4.55c.25,0,.39,0,.69,0a12.74,12.74,0,0,1-3.29-3,13.35,13.35,0,0,1-3.28,3.05c.27,0,.36,0,.65,0Z"/><path class="cls-1" d="M41.84,2a3.63,3.63,0,0,0,0,.5V5.58a4.71,4.71,0,0,0,0,.57h-.59a5.09,5.09,0,0,0,0-.58V2.46a4.19,4.19,0,0,0,0-.5Zm.57.6c0-.2,0-.34,0-.5l.5,0h1.71l.51,0a3.18,3.18,0,0,0,0,.47v3a4.39,4.39,0,0,0,0,.54h-.57V5.82H42.94V6.1h-.55a4.06,4.06,0,0,0,0-.57ZM43,5.32h1.59V4.15H43Zm0-1.67h1.6V2.58H43Z"/><path class="cls-1" d="M48.74,3.08a4.34,4.34,0,0,1,.58.46,4.65,4.65,0,0,0,.8-.8H48.89a4.79,4.79,0,0,1-1.26,1,1.18,1.18,0,0,0-.32-.4A3.52,3.52,0,0,0,49,1.81l.55.13-.24.34h1a2.43,2.43,0,0,0,.41,0l.28.29-.17.22a6.45,6.45,0,0,1-1.41,1.35h1.52l.39,0a2.75,2.75,0,0,0,0,.43v1.2a3,3,0,0,0,0,.46h-.53V5.94H48.94v.25H48.4a3.23,3.23,0,0,0,0-.46v-1c-.29.15-.47.24-.89.42a1.25,1.25,0,0,0-.3-.47,6.74,6.74,0,0,0,1.12-.48,6.1,6.1,0,0,0,.56-.35,3.87,3.87,0,0,0-.57-.49Zm.2,2.42h1.8V4.58h-1.8Z"/><path class="cls-1" d="M53.77,2.3a2.39,2.39,0,0,0,0-.43h.61a2.46,2.46,0,0,0,0,.43v.35h1.3a4.33,4.33,0,0,0,.55,0v.55l-.55,0h-1.3V4h1a2.31,2.31,0,0,0,.42,0,2.82,2.82,0,0,0,0,.44V5.65a3.45,3.45,0,0,0,0,.52h-.56V5.93H53v.24h-.57a3.64,3.64,0,0,0,0-.52V4.37c0-.18,0-.31,0-.44a2.37,2.37,0,0,0,.42,0h.88v-.8H52.56l-.56,0V2.62a4.39,4.39,0,0,0,.56,0h1.21ZM53,5.44h2.11v-1H53Z"/><path class="cls-1" d="M58.79,4.55l-.37,0c-.48,0-.7,0-.78,0l-.07-.45h.56a2.23,2.23,0,0,0,.22-.39h-.87a7.33,7.33,0,0,1-.16,1.33,3.14,3.14,0,0,1-.37,1,2.78,2.78,0,0,0-.42-.42,2.41,2.41,0,0,0,.34-.92A11.26,11.26,0,0,0,57,2.53,3.79,3.79,0,0,0,57,2a4.6,4.6,0,0,0,.61,0h2.57a3.3,3.3,0,0,0,.51,0c0,.15,0,.21,0,.38v.43c0,.16,0,.22,0,.34H57.5v.24h2.74a3.58,3.58,0,0,0,.54,0v.45l-.49,0H60c.18.16.39.38.71.73l-.43.24L60,4.46l-.73.06V4.9h.84a2.27,2.27,0,0,0,.46,0v.45l-.47,0h-.83v.34h1a3.52,3.52,0,0,0,.56,0V6.1a4.83,4.83,0,0,0-.62,0H57.88a4.72,4.72,0,0,0-.59,0V5.63a3.43,3.43,0,0,0,.54,0h1V5.31H58.1l-.49,0V4.88a2.92,2.92,0,0,0,.49,0h.69Zm1.4-1.81V2.43H57.51v.31Zm-1.31,1c-.1.17-.15.26-.23.38l.71,0,.35,0a3.09,3.09,0,0,0-.25-.23l.22-.1Z"/><path class="cls-1" d="M63.76,3.93A2.12,2.12,0,0,1,62.22,6.1a1.62,1.62,0,0,0-.39-.52,1.58,1.58,0,0,0,1.32-1.65H62a4.07,4.07,0,0,0-.59,0V3.39a2.69,2.69,0,0,0,.6,0h2.74a2.74,2.74,0,0,0,.6,0V4a4.07,4.07,0,0,0-.59,0Zm.71-1.15a3.76,3.76,0,0,0-.59,0h-1.4a3.83,3.83,0,0,0-.59,0V2.21a2.89,2.89,0,0,0,.6,0h1.38a2.84,2.84,0,0,0,.6,0Zm.27-.87a3.1,3.1,0,0,1,.42.74l-.35.13A3.32,3.32,0,0,0,64.4,2Zm.67.66a3.59,3.59,0,0,0-.4-.72l.34-.12a2.79,2.79,0,0,1,.41.71Z"/><path class="cls-1" d="M68.67,3V2.58a4.17,4.17,0,0,0,0-.46h.6a1.33,1.33,0,0,0,0,.31V3h.29a4.18,4.18,0,0,0,.62,0v.57a3.75,3.75,0,0,0-.61,0h-.31A3.15,3.15,0,0,1,69,5,2.19,2.19,0,0,1,67.6,6.08a1.24,1.24,0,0,0-.35-.5,1.72,1.72,0,0,0,1.26-.93,3,3,0,0,0,.15-1.17H67.45v.7a3.25,3.25,0,0,0,0,.39h-.61a1.8,1.8,0,0,0,0-.4V3.48h-.29a3.45,3.45,0,0,0-.59,0V2.94a3.86,3.86,0,0,0,.6,0h.28V2.5a2,2,0,0,0,0-.41h.61a2.12,2.12,0,0,0,0,.39V3Zm.89-1.12a2.84,2.84,0,0,1,.32.73l-.32.09a2.76,2.76,0,0,0-.32-.73Zm.58.67a3.45,3.45,0,0,0-.32-.71l.3-.09a2.87,2.87,0,0,1,.31.7Z"/><path class="cls-1" d="M74.56,2.39a1.37,1.37,0,0,0-.17.17,8.4,8.4,0,0,1-1.11,1v2a3.1,3.1,0,0,0,0,.52h-.66a2.83,2.83,0,0,0,0-.5V3.88A7.59,7.59,0,0,1,71,4.64a1.89,1.89,0,0,0-.31-.53,6.72,6.72,0,0,0,2.45-1.22A3.5,3.5,0,0,0,74,2Z"/><path class="cls-1" d="M75.69,5.25a4.5,4.5,0,0,0,1.38-.34,3.05,3.05,0,0,0,1.39-1.15,3.71,3.71,0,0,0,.48-.93,2,2,0,0,0,.49.46A4.1,4.1,0,0,1,78,5.12a5.17,5.17,0,0,1-1.78.7,1.66,1.66,0,0,0-.31.08Zm.39-2.9a6.78,6.78,0,0,1,1.21.9l-.4.51a5.52,5.52,0,0,0-1.19-.95Z"/><path class="cls-1" d="M82.7,4a.56.56,0,0,1-1.12,0A.56.56,0,0,1,82.7,4Z"/><path class="cls-1" d="M86.15,3.08a3.87,3.87,0,0,1,.59.46,5,5,0,0,0,.8-.8H86.31a5.15,5.15,0,0,1-1.26,1,1.18,1.18,0,0,0-.32-.4,3.62,3.62,0,0,0,1.66-1.5l.55.13-.24.34h1a2.49,2.49,0,0,0,.41,0l.27.29-.17.22a6.19,6.19,0,0,1-1.4,1.35h1.51l.39,0c0,.13,0,.25,0,.43v1.2a2.86,2.86,0,0,0,0,.46h-.53V5.94H86.36v.25h-.54a3.23,3.23,0,0,0,0-.46v-1c-.29.15-.47.24-.89.42a1.39,1.39,0,0,0-.3-.47,7.12,7.12,0,0,0,1.12-.48c.15-.08.3-.18.56-.35a3.87,3.87,0,0,0-.57-.49Zm.2,2.42h1.8V4.58h-1.8Z"/><path class="cls-1" d="M91.18,2.3a1.72,1.72,0,0,0,0-.43h.62a2.46,2.46,0,0,0,0,.43v.35H93a4.39,4.39,0,0,0,.56,0v.55l-.56,0H91.74V4h1a2.31,2.31,0,0,0,.42,0,2.68,2.68,0,0,0,0,.44V5.65a3.45,3.45,0,0,0,0,.52h-.56V5.93H90.45v.24h-.57a3.87,3.87,0,0,0,0-.52V4.37a2.89,2.89,0,0,0,0-.44,2.56,2.56,0,0,0,.43,0h.87v-.8H90l-.56,0V2.62a4.61,4.61,0,0,0,.56,0h1.21Zm-.73,3.14h2.1v-1h-2.1Z"/><path class="cls-1" d="M96.2,4.55l-.36,0c-.49,0-.71,0-.78,0L95,4.17h.56c.09-.15.15-.25.22-.39H94.9a7.33,7.33,0,0,1-.16,1.33,2.94,2.94,0,0,1-.38,1A2.33,2.33,0,0,0,94,5.74a2.79,2.79,0,0,0,.34-.92,12.26,12.26,0,0,0,.15-2.29,3.79,3.79,0,0,0,0-.53A4.78,4.78,0,0,0,95,2h2.56a3.54,3.54,0,0,0,.52,0,2.3,2.3,0,0,0,0,.38v.43a1.72,1.72,0,0,0,0,.34H94.92v.24h2.74a3.66,3.66,0,0,0,.55,0v.45l-.5,0h-.3a8.8,8.8,0,0,1,.7.73l-.42.24-.24-.3-.73.06V4.9h.83a2.46,2.46,0,0,0,.47,0v.45l-.47,0h-.83v.34h1a3.67,3.67,0,0,0,.57,0V6.1a4.92,4.92,0,0,0-.62,0H95.29a4.81,4.81,0,0,0-.59,0V5.63a3.66,3.66,0,0,0,.55,0h1V5.31h-.69l-.48,0V4.88a2.85,2.85,0,0,0,.49,0h.68Zm1.41-1.81V2.43H94.92v.31Zm-1.32,1a2.53,2.53,0,0,1-.23.38l.72,0,.35,0-.25-.23.21-.1Z"/><path class="cls-1" d="M98.73,3.68a1.83,1.83,0,0,0,.37,0h.35a2.1,2.1,0,0,0,.36,0,3.56,3.56,0,0,0,0,.51v1a.59.59,0,0,0,.34.32,2.38,2.38,0,0,0,1,.12,17.64,17.64,0,0,0,2-.09,2.4,2.4,0,0,0-.14.54c-.42,0-1.09,0-1.61,0a4.08,4.08,0,0,1-1.23-.1,1.07,1.07,0,0,1-.59-.41A5.15,5.15,0,0,1,99,6l-.16.12-.23-.53a2.77,2.77,0,0,0,.68-.46v-1H99a1.48,1.48,0,0,0-.31,0ZM99.12,2a7.16,7.16,0,0,1,.82.84l-.41.37a5,5,0,0,0-.79-.88Zm1.47.93a3.77,3.77,0,0,1-.26.37A1.72,1.72,0,0,0,99.89,3a2.37,2.37,0,0,0,.58-1l.49.11a2.07,2.07,0,0,1-.08.21l-.08.17h.43V2.33a2.17,2.17,0,0,0,0-.43h.54a2.26,2.26,0,0,0,0,.43v.12h.55a3.41,3.41,0,0,0,.5,0v.48a3.33,3.33,0,0,0-.48,0h-.57v.43h.78l.43,0v.48a3.11,3.11,0,0,0-.43,0h-2.13l-.4,0V3.3l.42,0h.84V2.89Zm.09,2.46a4.19,4.19,0,0,0-.42,0,3.55,3.55,0,0,0,0-.48V4.42c0-.32,0-.32,0-.41h2.39c0,.11,0,.19,0,.47v.44c0,.28,0,.34,0,.45l-.46,0Zm.07-.45h1.4V4.47h-1.4Z"/><path class="cls-1" d="M103.89,2.54a2.31,2.31,0,0,0-.41,0V2a3.64,3.64,0,0,0,.48,0h1.46a3.43,3.43,0,0,0,.48,0v.53a2.19,2.19,0,0,0-.41,0h0v1h.08a2.19,2.19,0,0,0,.42,0V4a2.26,2.26,0,0,0-.42,0h-.08V5.62a3.75,3.75,0,0,0,0,.54h-.56a3.7,3.7,0,0,0,0-.53V4h-.53a5,5,0,0,1-.12,1.07,3,3,0,0,1-.6,1.14,1.85,1.85,0,0,0-.4-.39A2.49,2.49,0,0,0,103.94,4h-.11a2.5,2.5,0,0,0-.42,0V3.48a2.34,2.34,0,0,0,.42,0H104v-1Zm.55,1H105v-1h-.52Zm3.35,1.19-.19.19a5.62,5.62,0,0,1-1.68,1.29,2.36,2.36,0,0,0-.32-.45,4,4,0,0,0,1.79-1.4Zm-.29-2.47-.37.34a4.76,4.76,0,0,1-1.13.76,1.77,1.77,0,0,0-.3-.45,4.09,4.09,0,0,0,1-.58,2.37,2.37,0,0,0,.4-.41Zm.15,1.22a1.68,1.68,0,0,0-.19.19,5.81,5.81,0,0,1-.76.65,4.91,4.91,0,0,1-.69.4,1.89,1.89,0,0,0-.29-.47,3.92,3.92,0,0,0,1.14-.7,2.06,2.06,0,0,0,.38-.43Z"/><path class="cls-1" d="M109.26,3.58a5.46,5.46,0,0,0,2-.84l.37.53-.42.2a7.68,7.68,0,0,1-2,.65V4.8c0,.27,0,.37.08.44a1.48,1.48,0,0,0,.8.12,10.3,10.3,0,0,0,1.09-.07,3.13,3.13,0,0,0,.53-.12l0,.63-.62,0c-.27,0-.86.05-1.15.05a1.85,1.85,0,0,1-1.09-.2.6.6,0,0,1-.23-.47,2.93,2.93,0,0,1,0-.43V2.63a2.26,2.26,0,0,0,0-.43h.63a2,2,0,0,0,0,.43ZM111.48,2a2.74,2.74,0,0,1,.47.71l-.33.15a3,3,0,0,0-.47-.71Zm.71.59a3.73,3.73,0,0,0-.45-.69l.32-.15a2.67,2.67,0,0,1,.46.67Z"/><path class="cls-1" d="M113.29,3.27a7.7,7.7,0,0,1,1.25.64l-.29.53A5.48,5.48,0,0,0,113,3.75Zm-.21,2.1a4.42,4.42,0,0,0,1.36-.31A3.22,3.22,0,0,0,116.33,3a2.18,2.18,0,0,0,.49.42,4,4,0,0,1-3.25,2.51l-.32.08Zm.57-3.23a8.08,8.08,0,0,1,1.25.6l-.3.52a5.71,5.71,0,0,0-1.25-.64Zm2.44-.09a3.27,3.27,0,0,1,.49.69l-.33.17a3.24,3.24,0,0,0-.49-.7Zm.72.56a3.26,3.26,0,0,0-.48-.67l.32-.17a2.79,2.79,0,0,1,.48.66Z"/><path class="cls-1" d="M119.19,6.11a2.54,2.54,0,0,0,0-.41V4.48l-.14.09a8.24,8.24,0,0,1-1.32.52,2,2,0,0,0-.28-.51,6.26,6.26,0,0,0,1.31-.43,5.25,5.25,0,0,0,1.45-1h-1.82a3.26,3.26,0,0,0-.49,0V2.63a2.29,2.29,0,0,0,.5,0h.78V2.29a1.53,1.53,0,0,0,0-.34h.62a2.5,2.5,0,0,0,0,.33v.39h.79a.93.93,0,0,0,.32,0l.27.32a1.65,1.65,0,0,0-.21.2A6,6,0,0,1,120,4a6.92,6.92,0,0,1,1.63.73l-.31.49a8.24,8.24,0,0,0-1.42-.75l-.12,0a1.93,1.93,0,0,1,0,.23v1a2.37,2.37,0,0,0,0,.41Z"/><path class="cls-1" d="M125.81,6a9,9,0,0,0-1.44-1.39,5.39,5.39,0,0,1-1.78,1.35,1.93,1.93,0,0,0-.38-.52,3.77,3.77,0,0,0,.94-.51A4.53,4.53,0,0,0,124.72,3l0-.12-1.55,0-.51,0v-.6a1.59,1.59,0,0,0,.41,0h.11l1.65,0a1.15,1.15,0,0,0,.41-.05l.31.31a.89.89,0,0,0-.15.26,5.93,5.93,0,0,1-.73,1.29,6.8,6.8,0,0,1,.87.67l.68.65Z"/><path class="cls-1" d="M129.47,4a.56.56,0,0,1-1.12,0,.56.56,0,1,1,1.12,0Z"/><path class="cls-1" d="M132.92,3.08a3.87,3.87,0,0,1,.59.46,5,5,0,0,0,.8-.8h-1.23a5.15,5.15,0,0,1-1.26,1,1.18,1.18,0,0,0-.32-.4,3.62,3.62,0,0,0,1.66-1.5l.55.13c-.12.18-.16.23-.24.34h1a2.49,2.49,0,0,0,.41,0l.27.29-.17.22a6.19,6.19,0,0,1-1.4,1.35h1.51l.39,0c0,.13,0,.25,0,.43v1.2a2.86,2.86,0,0,0,0,.46h-.53V5.94h-1.79v.25h-.54a3.23,3.23,0,0,0,0-.46v-1c-.29.15-.47.24-.89.42a1.39,1.39,0,0,0-.3-.47,7.12,7.12,0,0,0,1.12-.48c.15-.08.3-.18.56-.35a3.87,3.87,0,0,0-.57-.49Zm.2,2.42h1.8V4.58h-1.8Z"/><path class="cls-1" d="M138,2.3a1.72,1.72,0,0,0,0-.43h.62a2.46,2.46,0,0,0,0,.43v.35h1.29a4.39,4.39,0,0,0,.56,0v.55l-.56,0h-1.29V4h1a2.31,2.31,0,0,0,.42,0,2.68,2.68,0,0,0,0,.44V5.65a3.45,3.45,0,0,0,0,.52h-.56V5.93h-2.11v.24h-.57a3.87,3.87,0,0,0,0-.52V4.37a2.89,2.89,0,0,0,0-.44,2.56,2.56,0,0,0,.43,0H138v-.8h-1.21l-.56,0V2.62a4.61,4.61,0,0,0,.56,0H138Zm-.73,3.14h2.1v-1h-2.1Z"/><path class="cls-1" d="M143,4.55l-.36,0c-.49,0-.71,0-.78,0l-.07-.45h.55a3.29,3.29,0,0,0,.23-.39h-.87a7.33,7.33,0,0,1-.16,1.33,2.94,2.94,0,0,1-.38,1,2.33,2.33,0,0,0-.41-.42,2.79,2.79,0,0,0,.34-.92,12.26,12.26,0,0,0,.15-2.29,3.79,3.79,0,0,0,0-.53,4.78,4.78,0,0,0,.62,0h2.56a3.54,3.54,0,0,0,.52,0,2.3,2.3,0,0,0,0,.38v.43a1.72,1.72,0,0,0,0,.34h-3.19v.24h2.74a3.66,3.66,0,0,0,.55,0v.45l-.5,0h-.3c.17.16.39.38.7.73l-.42.24-.24-.3-.73.06V4.9h.83a2.46,2.46,0,0,0,.47,0v.45l-.47,0h-.83v.34h1a3.67,3.67,0,0,0,.57,0V6.1a4.92,4.92,0,0,0-.62,0h-2.39a4.81,4.81,0,0,0-.59,0V5.63a3.66,3.66,0,0,0,.55,0H143V5.31h-.69l-.48,0V4.88a2.85,2.85,0,0,0,.49,0H143Zm1.41-1.81V2.43h-2.69v.31Zm-1.32,1a2.53,2.53,0,0,1-.23.38l.72,0,.35,0-.25-.23.21-.1Z"/><path class="cls-1" d="M145.5,3.68a1.83,1.83,0,0,0,.37,0h.35a2.1,2.1,0,0,0,.36,0,3.56,3.56,0,0,0,0,.51v1a.59.59,0,0,0,.34.32,2.38,2.38,0,0,0,.95.12,17.64,17.64,0,0,0,2-.09,2.4,2.4,0,0,0-.14.54c-.42,0-1.09,0-1.61,0a4.08,4.08,0,0,1-1.23-.1,1.07,1.07,0,0,1-.59-.41,5.15,5.15,0,0,1-.52.43l-.16.12-.23-.53a2.77,2.77,0,0,0,.68-.46v-1h-.26a1.48,1.48,0,0,0-.31,0ZM145.89,2a7.16,7.16,0,0,1,.82.84l-.41.37a5,5,0,0,0-.79-.88Zm1.47.93a3.77,3.77,0,0,1-.26.37,1.72,1.72,0,0,0-.44-.27,2.37,2.37,0,0,0,.58-1l.49.11a2.07,2.07,0,0,1-.08.21l-.08.17H148V2.33a2.17,2.17,0,0,0,0-.43h.54a2.26,2.26,0,0,0,0,.43v.12H149a3.41,3.41,0,0,0,.5,0v.48a3.33,3.33,0,0,0-.48,0h-.57v.43h.78l.43,0v.48a3.11,3.11,0,0,0-.43,0h-2.13l-.4,0V3.3l.42,0H148V2.89Zm.09,2.46-.42,0a3.55,3.55,0,0,0,0-.48V4.42c0-.32,0-.32,0-.41h2.39c0,.11,0,.19,0,.47v.44c0,.28,0,.34,0,.45l-.46,0Zm.07-.45h1.4V4.47h-1.4Z"/><path class="cls-1" d="M150.66,2.54a2.31,2.31,0,0,0-.41,0V2a3.64,3.64,0,0,0,.48,0h1.46a3.43,3.43,0,0,0,.48,0v.53a2.19,2.19,0,0,0-.41,0h0v1h.08a2.19,2.19,0,0,0,.42,0V4a2.26,2.26,0,0,0-.42,0h-.08V5.62a2.7,2.7,0,0,0,0,.54h-.56a3.7,3.7,0,0,0,0-.53V4h-.53a4.35,4.35,0,0,1-.13,1.07,2.84,2.84,0,0,1-.59,1.14,1.85,1.85,0,0,0-.4-.39A2.49,2.49,0,0,0,150.71,4h-.11a2.5,2.5,0,0,0-.42,0V3.48a2.34,2.34,0,0,0,.42,0h.12v-1Zm.55,1h.52v-1h-.52Zm3.35,1.19c-.09.09-.11.1-.19.19a5.62,5.62,0,0,1-1.68,1.29,2.36,2.36,0,0,0-.32-.45,4,4,0,0,0,1.79-1.4Zm-.29-2.47-.37.34a4.76,4.76,0,0,1-1.13.76,1.77,1.77,0,0,0-.3-.45,4.09,4.09,0,0,0,1-.58,2.37,2.37,0,0,0,.4-.41Zm.15,1.22a1.68,1.68,0,0,0-.19.19,5.81,5.81,0,0,1-.76.65,4.91,4.91,0,0,1-.69.4,1.89,1.89,0,0,0-.29-.47,3.92,3.92,0,0,0,1.14-.7,2.06,2.06,0,0,0,.38-.43Z"/><path class="cls-1" d="M157.3,3.93a2.12,2.12,0,0,1-1.54,2.17,1.78,1.78,0,0,0-.39-.52,1.59,1.59,0,0,0,1.32-1.65h-1.14A4.07,4.07,0,0,0,155,4V3.39a2.69,2.69,0,0,0,.6,0h2.74a2.74,2.74,0,0,0,.6,0V4a4.07,4.07,0,0,0-.59,0ZM158,2.78a3.76,3.76,0,0,0-.59,0H156a3.83,3.83,0,0,0-.59,0V2.21a2.89,2.89,0,0,0,.6,0h1.38a2.84,2.84,0,0,0,.6,0Zm.27-.87a3.1,3.1,0,0,1,.42.74l-.35.13a3.32,3.32,0,0,0-.41-.75Zm.67.66a3.59,3.59,0,0,0-.4-.72l.34-.12a2.79,2.79,0,0,1,.41.71Z"/><path class="cls-1" d="M162.21,3V2.58a4.17,4.17,0,0,0,0-.46h.6a1.33,1.33,0,0,0,0,.31V3h.29a4.18,4.18,0,0,0,.62,0v.57a3.75,3.75,0,0,0-.61,0h-.31A3.15,3.15,0,0,1,162.53,5a2.19,2.19,0,0,1-1.39,1.09,1.24,1.24,0,0,0-.35-.5,1.72,1.72,0,0,0,1.26-.93,3,3,0,0,0,.15-1.17H161v.7a2,2,0,0,0,0,.39h-.61c0-.1,0-.15,0-.4V3.48h-.29a3.45,3.45,0,0,0-.59,0V2.94a3.86,3.86,0,0,0,.6,0h.28V2.5a3.25,3.25,0,0,0,0-.41H161a2.12,2.12,0,0,0,0,.39V3Zm.89-1.12a2.84,2.84,0,0,1,.32.73l-.32.09a2.76,2.76,0,0,0-.32-.73Zm.58.67a3.45,3.45,0,0,0-.32-.71l.3-.09a2.87,2.87,0,0,1,.31.7Z"/><path class="cls-1" d="M168.1,2.39a1.37,1.37,0,0,0-.17.17,8.4,8.4,0,0,1-1.11,1v2a3.1,3.1,0,0,0,0,.52h-.66a2.83,2.83,0,0,0,0-.5V3.88a7.59,7.59,0,0,1-1.67.76,1.89,1.89,0,0,0-.31-.53,6.72,6.72,0,0,0,2.45-1.22,3.5,3.5,0,0,0,.87-.87Z"/><path class="cls-1" d="M169.23,5.25a4.5,4.5,0,0,0,1.38-.34A3.05,3.05,0,0,0,172,3.76a3.71,3.71,0,0,0,.48-.93,2,2,0,0,0,.49.46,4.1,4.1,0,0,1-1.48,1.83,5.17,5.17,0,0,1-1.78.7,1.66,1.66,0,0,0-.31.08Zm.39-2.9a6.78,6.78,0,0,1,1.21.9l-.4.51a5.52,5.52,0,0,0-1.19-.95Z"/><path class="cls-1" d="M81.64,13.88v.42H74.27v-1h3.1V12.18H75.82a7.12,7.12,0,0,1-.49.68h0A.5.5,0,0,1,75,13a.53.53,0,0,1-.4-.17h0l-.39-.44A5.46,5.46,0,0,0,75.65,10l.54.22h0a.54.54,0,0,1,.31.66s-.08.25-.09.26h1V10.12H78a.56.56,0,0,1,.52.6h0v.45h2.21a.54.54,0,0,1,.52.57v.44H78.5v1.13h2.62A.54.54,0,0,1,81.64,13.88Z"/><path class="cls-1" d="M72.47,10.55a.55.55,0,0,0-.68.19h0l-.31.57a11.7,11.7,0,0,1,2,1.31l.68-1A9.61,9.61,0,0,0,72.47,10.55Z"/><path class="cls-1" d="M71.65,19.65,72,20a4.66,4.66,0,0,0,1.26-1.28,3.56,3.56,0,0,0,3,1.28h5a.51.51,0,0,0,.52-.53V18.9H76.34a4.16,4.16,0,0,1-1.51-.36,1.61,1.61,0,0,1-1-1.06v-3a.55.55,0,0,0-.55-.55h-1.7V15h1.14v2.78c0,.38-.43.81-.93,1.13h0A.55.55,0,0,0,71.65,19.65Z"/><path class="cls-1" d="M88.08,12.9a.51.51,0,0,1-.06-.25.55.55,0,0,1,.3-.49,10.73,10.73,0,0,0,2.93-2.11l.44.43h0a.56.56,0,0,1,0,.79h0a13.53,13.53,0,0,1-3.31,2.19l-.3-.57Z"/><path class="cls-1" d="M88.21,19.39a1,1,0,0,1,0-.1.55.55,0,0,1,.3-.64h0a8.12,8.12,0,0,0,3.27-2.84l.58.42h0a.57.57,0,0,1,0,.79h0a12.6,12.6,0,0,1-3.78,3l-.33-.59Z"/><path class="cls-1" d="M88.1,16.29a.56.56,0,0,1,.14-.77h0A9.21,9.21,0,0,0,91.05,13l.43.33h0a.55.55,0,0,1,.06.78h0a11.83,11.83,0,0,1-3.17,2.6l-.27-.44Z"/><path class="cls-1" d="M88,14h-.85V11.26H88v-.52a.55.55,0,0,0-.56-.55H82.59v1.07h1V14H82.38v1.09H83.6v.27a4.76,4.76,0,0,1-1.09,3.4h0a.56.56,0,0,0-.14.38.6.6,0,0,0,.26.47h0l.48.38a6,6,0,0,0,1.6-4.58v-.32h1.37V20h1.09v-4.9h1.41v-.53A.56.56,0,0,0,88,14Zm-1.94,0H84.71V11.26h1.37Z"/><path class="cls-1" d="M80.54,15H74.86v3.23h6.2V15.56A.54.54,0,0,0,80.54,15ZM80,17.25H76V15.94h4Z"/><path class="cls-1" d="M46,12.73a7.21,7.21,0,0,0-1,0V11.62h4.89V11.1a.6.6,0,0,0-.57-.63H44.93V9.82a.61.61,0,0,0-.58-.63h-.58v1.28H40.16v1.15h3.61V13a5.37,5.37,0,0,0-2.18,1.33A4,4,0,0,0,40.32,17a2.34,2.34,0,0,0,1.2,2.11,1.82,1.82,0,0,0,2-.12,42.21,42.21,0,0,0,3.54-4.75,2.08,2.08,0,0,1,1.69,2.35c0,.81-1,2-3.14,2.15a.62.62,0,0,0-.49.55V20c3.49,0,4.79-2.09,4.79-3.41C49.93,15.05,49.52,13,46,12.73Zm-3.13,5.21a.76.76,0,0,1-.81,0,1,1,0,0,1-.56-1,2.79,2.79,0,0,1,.9-1.74,4.12,4.12,0,0,1,1.4-.93v2.54A8.62,8.62,0,0,1,42.84,17.94Zm2.09-2.72V14a6.09,6.09,0,0,1,.86,0Z"/><path class="cls-1" d="M67.59,13.22a5.47,5.47,0,0,0-3.26,1.15c.19-.64.4-1.44.61-2.11h5.4v-.52a.61.61,0,0,0-.58-.63H65.32c.14-.48.27-.9.36-1.2a.64.64,0,0,0-.3-.69L64.75,9l-.64,2.11h-3v1.15h2.66l-1.21,4.08,1,.56s1.6-2.43,4.06-2.43c1.36,0,2,.65,2,1.92S68,18.53,65.07,18.65a.64.64,0,0,0-.55.65v.62c5.45-.06,6.27-2.23,6.27-3.53A2.93,2.93,0,0,0,67.59,13.22Z"/><path class="cls-1" d="M54,17.44c-.08.1-.2.21-.32.2a.47.47,0,0,1-.29-.17c-.78-1-1.2-4.28-1.31-6.47a.59.59,0,0,0-.56-.54l-.61,0c0,.62.21,6,1.6,7.8a1.66,1.66,0,0,0,1.13.62,1.51,1.51,0,0,0,1.19-.59,3.41,3.41,0,0,0,.69-1.2l-1-.94A2.06,2.06,0,0,1,54,17.44Z"/><path class="cls-1" d="M59.23,11.06a.49.49,0,0,0-.71-.09l-.48.46a8.61,8.61,0,0,1,1.59,5.46l1.15.07A10,10,0,0,0,59.23,11.06Z"/><path class="cls-1" d="M101,11a.56.56,0,0,0-.56-.62H93.8v1.25H101Z"/><path class="cls-1" d="M102,13H92.7v1.25H97a6.29,6.29,0,0,1-.16,2.19,3.39,3.39,0,0,1-1,1.53,3.88,3.88,0,0,1-1.92.48.6.6,0,0,0-.6.6v.59s.73,0,.8,0A5.27,5.27,0,0,0,96.36,19a4.42,4.42,0,0,0,1.52-1.76,7.94,7.94,0,0,0,.47-3h4.24v-.62A.6.6,0,0,0,102,13Z"/><path class="cls-1" d="M115.05,16.07l-.15-.6a.6.6,0,0,1,.49-.65,10.75,10.75,0,0,0,4.79-2,17.25,17.25,0,0,0,2.42-2.9l.31-.42.47.3a.61.61,0,0,1,.28.52c0,.29-.18.63-.9,1.61-.52.68-1,1.21-1.49,1.77v6h-1.38v-5.3a9.65,9.65,0,0,1-2.48,1.11A21.29,21.29,0,0,1,115.05,16.07Z"/><path class="cls-1" d="M101.32,11.62V9.8H102q.48,0,.48.57v1.25Z"/><path class="cls-1" d="M102.79,11.62V9.8h.69c.31,0,.47.19.47.57v1.25Z"/><path class="cls-1" d="M124.78,10.26h3.67c.38,0,.57.16.57.47v.69h-4.24Z"/><path class="cls-1" d="M113,11.62V9.8h.68q.48,0,.48.57v1.25Z"/><path class="cls-1" d="M114.47,11.62V9.8h.69c.31,0,.47.19.47.57v1.25Z"/><path class="cls-1" d="M106.88,19.82a18.9,18.9,0,0,0,2.54-.4,3.94,3.94,0,0,0,2.78-2.23,3.62,3.62,0,0,0,.48-1.9v-1.9h1.9v-.78a.48.48,0,0,0-.56-.47h-1.34V10.33a.53.53,0,0,0-.57-.56h-.77v2.37h-3.5v-1.8c0-.38-.17-.57-.48-.57h-.85v2.37h-2v1.25h2v2.19h1.33V13.39h3.5v1.9a2.62,2.62,0,0,1-.54,1.81c-.78.93-1.57,1.26-3.46,1.41a.6.6,0,0,0-.56.62Z"/><path class="cls-1" d="M132.54,11.46H132s-.62,3.61-2.49,5c-1.08.83-2.1,1.46-5.23,2l.14,1.16a13.54,13.54,0,0,0,2.55-.42c2-.63,3.58-1.39,4.56-2.84A10.08,10.08,0,0,0,132.67,14a6,6,0,0,0,.39-2A.52.52,0,0,0,132.54,11.46Z"/><path class="cls-1" d="M142.92,11.06v-.5a.5.5,0,0,0-.5-.5H139V9.81a.51.51,0,0,0-.5-.5H138v.75h-3.89v1H138v.44h-3.27v4.36H140v.45h-6.13v1h2.27l-.38.53a10.06,10.06,0,0,1,1.46,1.27l.67-.93c-.37-.37-.69-.66-.94-.87H140v1.37h-1.48a.5.5,0,0,0-.5.5v.5h2.09a1,1,0,0,0,1-1V17.3h1.81v-.5a.49.49,0,0,0-.5-.49h-1.31v-.45h1.19V12a.5.5,0,0,0-.5-.5H139v-.44Zm-5,3.8h-2.2v-.6H138Zm0-1.76h-2.2v-.6H138Zm3.27,1.76H139v-.6h2.2Zm0-2.36v.6H139v-.6Z"/><path class="cls-1" d="M147.19,9.63h-3.66v10h1.11V14.16h3.05v-4A.5.5,0,0,0,147.19,9.63Zm-.61,3.53h-1.94v-.77h1.94Zm0-1.77h-1.94v-.76h1.94Z"/><path class="cls-1" d="M152.05,9.63h-3.58v4.53h3v4.51h-1.67a.5.5,0,0,0-.5.5v.5h2.29a1,1,0,0,0,1-1V10.13A.51.51,0,0,0,152.05,9.63Zm-2.47,1h1.85v.76h-1.85Zm0,2.53v-.77h1.85v.77Z"/><path class="cls-1" d="M161.81,11.38h-1.19a5,5,0,0,0,.9-1.31.51.51,0,0,0-.26-.65l-.57-.23a8.23,8.23,0,0,1-1.53,2.11l.17.08h-.76l.06-.07a11.81,11.81,0,0,0-1.18-1.86.51.51,0,0,0-.67-.07l-.46.43a16.41,16.41,0,0,1,1.1,1.57H156l.05-.07a11.13,11.13,0,0,0-1.18-1.86.5.5,0,0,0-.66-.07l-.47.43a14.79,14.79,0,0,1,1.1,1.57H153V14h1.11V12.38h7.08V14h1.11V11.88A.5.5,0,0,0,161.81,11.38Z"/><path class="cls-1" d="M162.32,16.45a.5.5,0,0,0-.5-.5h-3.56v-.43a12.31,12.31,0,0,0,2-1.44l.25-.26s0,0,0,0l0,0a.5.5,0,0,0,.08-.27.5.5,0,0,0-.5-.5h-5.43v1.11h3.86c-.28.2-.56.39-.79.53h-.63V16H153v1h4.16v1.72h-1.52a.5.5,0,0,0-.5.5v.5h2.13a1,1,0,0,0,1-1V17h4.06Z"/><path class="cls-1" d="M169.77,17a10.32,10.32,0,0,0,1.32-2.65,4.59,4.59,0,0,0,.87,1l.7-1a5.36,5.36,0,0,1-1.53-2.89h1.07V11a.5.5,0,0,0-.5-.5h-1.95V9.82a.5.5,0,0,0-.5-.5h-.61v1.15h-2.45v1h1.25a5.41,5.41,0,0,1-1.45,3l.41.57a.48.48,0,0,0,.7,0l.26-.32a10.25,10.25,0,0,0,.95,2.22,7.69,7.69,0,0,1-2.71,1.88l.29.63a.54.54,0,0,0,.7.26h0A8.76,8.76,0,0,0,169,18a7.34,7.34,0,0,0,2.54,2,.52.52,0,0,0,.65-.31l.24-.65A6,6,0,0,1,169.77,17ZM169.09,16a8.7,8.7,0,0,1-.91-2.82,11.66,11.66,0,0,0,.41-1.67H170a10.82,10.82,0,0,0,.36,1.42A8.22,8.22,0,0,1,169.09,16Z"/><path class="cls-1" d="M166.68,15.68a34.41,34.41,0,0,0-1.28-3.21v-.09h1.08v-.5a.5.5,0,0,0-.5-.5h-.58V9.77a.5.5,0,0,0-.49-.5h-.62v2.11h-1.45v1h1.41a13.13,13.13,0,0,1-1.73,4.76l.54.48a.51.51,0,0,0,.63-.16,4.14,4.14,0,0,0,.6-1.28v3.45h1.11v-4.3c.13.33.24.64.32.91Z"/><path class="cls-1" d="M14.84.81a1.88,1.88,0,1,0,0,3.76h6.62l-8.1,13a.73.73,0,0,0-.11.4.85.85,0,0,0,.09.38.8.8,0,0,0,.67.4h7.81a.33.33,0,0,1,.34.34.35.35,0,0,1-.35.34H13c-.78-3-4.28-16.3-4.4-16.74C8.26,1.51,7.53.81,6.58.81s-1.69.7-2,1.91c0,.15-1.52,5.77-2.63,10a.76.76,0,0,0,1.35.64,2.95,2.95,0,1,1-.56,2.15A.75.75,0,0,0,2,14.87a.77.77,0,0,0-.79.57L0,20A.79.79,0,0,0,.58,21a.77.77,0,0,0,.93-.55s.32-1.25.64-2.47a4.49,4.49,0,0,0,8-2.8,4.92,4.92,0,0,0-.07-.78c.86,3.26,1.57,6,1.59,6.05a.76.76,0,0,0,.74.57h9.41a1.88,1.88,0,1,0,0-3.75H15.39l8.1-13a.72.72,0,0,0,.12-.4.86.86,0,0,0-.1-.38A.76.76,0,0,0,22.84,3h-8a.35.35,0,1,1,0-.69H26.35a8.57,8.57,0,1,1,0,17.14h-.44V3.81a.77.77,0,1,0-1.53,0V20.23a.77.77,0,0,0,.76.77h1.21a10.1,10.1,0,1,0,0-20.19ZM6,3.12c0-.18.23-.79.54-.79s.49.61.54.79S8.65,8.94,9.89,13.68a4.49,4.49,0,0,0-4.23-3A4.4,4.4,0,0,0,4,11C5,7.07,6,3.23,6,3.12Z"/></g></g></g></svg>