<svg xmlns="http://www.w3.org/2000/svg" viewBox="0 0 80.45 84.75"><defs><style>.cls-1{fill:#f7d921;}.cls-2{fill:none;stroke:#000;stroke-miterlimit:10;stroke-width:3px;}.cls-3{fill:#d3162c;}</style></defs><g id="レイヤー_2" data-name="レイヤー 2"><g id="main"><g id="section-prize"><path class="cls-1" d="M44.22,84.29a70.08,70.08,0,0,0-9.91.39,39,39,0,0,1,2-9.83,37.91,37.91,0,0,1,10.52-15c2.68-2.37,5-4.14,12.66-9.28,7.07-4.84,9.22-7.37,9.22-11.29,0-5.22-4.07-8.44-10.6-8.44-4.45,0-7.83,1.53-9.75,4.53-1.3,1.84-1.84,3.53-2.38,7.06L35,41.07c1.08-5.83,2.46-9,5.3-12.28C44.14,24.34,50.2,22,57.88,22c13.44,0,21.73,6.45,21.73,17a15.6,15.6,0,0,1-5.45,12.29c-2.15,2-2.92,2.61-12.9,9.44a66.63,66.63,0,0,0-9.14,7.68,18.44,18.44,0,0,0-4.37,6.91H69.24a81,81,0,0,0,11.21-.62V84.75c-3.61-.3-6.68-.46-11.59-.46Z"/><path class="cls-2" d="M41.22,82.29a70.08,70.08,0,0,0-9.91.39,39,39,0,0,1,2-9.83,37.91,37.91,0,0,1,10.52-15c2.68-2.37,5-4.14,12.66-9.28,7.07-4.84,9.22-7.37,9.22-11.29,0-5.22-4.07-8.44-10.6-8.44-4.45,0-7.83,1.53-9.75,4.53-1.3,1.84-1.84,3.53-2.38,7.06L32,39.07c1.08-5.83,2.46-9,5.3-12.28C41.14,22.34,47.2,20,54.88,20c13.44,0,21.73,6.45,21.73,17a15.6,15.6,0,0,1-5.45,12.29c-2.15,2-2.92,2.61-12.9,9.44a66.63,66.63,0,0,0-9.14,7.68,18.44,18.44,0,0,0-4.37,6.91H66.24a81,81,0,0,0,11.21-.62V82.75c-3.61-.3-6.68-.46-11.59-.46Z"/><path class="cls-3" d="M30,18.14a2,2,0,0,1-1.92-1.44L24,2.56a2,2,0,1,1,3.84-1.12l4.09,14.15a2,2,0,0,1-1.36,2.47A1.85,1.85,0,0,1,30,18.14Z"/><path class="cls-3" d="M19.35,23.14a2,2,0,0,1-1.28-.46L5.49,12.16A2,2,0,0,1,8.05,9.09L20.64,19.61a2,2,0,0,1-1.29,3.53Z"/><path class="cls-3" d="M16,35.14H16L2,34.77a2,2,0,0,1,.1-4l14,.37a2,2,0,0,1-.05,4Z"/></g></g></g></svg>