<svg xmlns="http://www.w3.org/2000/svg" viewBox="0 0 64.56 84.29"><defs><style>.cls-1{fill:#f7d921;}.cls-2{fill:none;stroke:#000;stroke-miterlimit:10;stroke-width:3px;}.cls-3{fill:#d3162c;}</style></defs><g id="レイヤー_2" data-name="レイヤー 2"><g id="main"><g id="section-prize"><path class="cls-1" d="M53,84.29a63.74,63.74,0,0,0,.61-10V32H49.9a67.68,67.68,0,0,0-7.91.46V22.73a43.06,43.06,0,0,0,7.68.46h7.06a55.26,55.26,0,0,0,7.83-.39A115.85,115.85,0,0,0,64,35.47V74.31a64.4,64.4,0,0,0,.61,10Z"/><path class="cls-2" d="M50,82.29a63.74,63.74,0,0,0,.61-10V30H46.9a67.68,67.68,0,0,0-7.91.46V20.73a43.06,43.06,0,0,0,7.68.46h7.06a55.26,55.26,0,0,0,7.83-.39A115.85,115.85,0,0,0,61,33.47V72.31a64.4,64.4,0,0,0,.61,10Z"/><path class="cls-3" d="M30,18.14a2,2,0,0,1-1.92-1.44L24,2.56a2,2,0,1,1,3.84-1.12l4.09,14.15a2,2,0,0,1-1.36,2.47A1.85,1.85,0,0,1,30,18.14Z"/><path class="cls-3" d="M19.35,23.14a2,2,0,0,1-1.28-.46L5.49,12.16A2,2,0,0,1,8.05,9.09L20.64,19.61a2,2,0,0,1-1.29,3.53Z"/><path class="cls-3" d="M16,35.14H16L2,34.77a2,2,0,0,1,.1-4l14,.37a2,2,0,0,1-.05,4Z"/></g></g></g></svg>