<svg xmlns="http://www.w3.org/2000/svg" viewBox="0 0 124 72.03"><defs><style>.cls-1{fill:#d3162c;}.cls-2{fill:#fff;}</style></defs><g id="レイヤー_2" data-name="レイヤー 2"><g id="header"><g id="nav"><rect class="cls-1" y="25.14" width="123.67" height="46.89"/><path class="cls-2" d="M29.52,40.74C27.06,45.49,26,47,22.88,50a10.81,10.81,0,0,0-1.75-2.35A21.34,21.34,0,0,0,20,50.24,31.81,31.81,0,0,1,17.64,46c0,.64,0,.64.1,2.6,0,.15,0,2,0,2.36v8.64A36.1,36.1,0,0,0,18,64H13.92a28.23,28.23,0,0,0,.25-4.39V52.31l0-1.82s0-1,.14-2.93A29,29,0,0,1,10.57,56a23.71,23.71,0,0,0-2-4,32.28,32.28,0,0,0,5.14-11h-1.4a20.4,20.4,0,0,0-2.74.14V37.39a19.15,19.15,0,0,0,2.74.14h1.79v-3A24.37,24.37,0,0,0,14,30.86h4a29.82,29.82,0,0,0-.18,3.71v3h1.43a12.17,12.17,0,0,0,2.14-.14v3.68A17.94,17.94,0,0,0,19.28,41H17.85a16.06,16.06,0,0,0,3.36,5.28,19.27,19.27,0,0,0,4.89-7Zm7.82,7a37,37,0,0,1-4,7.1c2.46,2.36,4.89,3.75,9.13,5.14a14.31,14.31,0,0,0-2,3.9A25.43,25.43,0,0,1,31,57.81,26.28,26.28,0,0,1,21.67,64a12.5,12.5,0,0,0-2.21-3.47A21.33,21.33,0,0,0,28.63,55a27.91,27.91,0,0,1-3.71-6.85l3.25-1.64A22.41,22.41,0,0,0,31,52a21.78,21.78,0,0,0,2.82-5.75ZM29.13,33.85A14.26,14.26,0,0,0,29,31.18H33.2a13.21,13.21,0,0,0-.18,2.6v1.54h4.85a28,28,0,0,0,3.93-.22V39c-1.18-.11-2.39-.18-4-.18H26.06a30.27,30.27,0,0,0-4,.22v-4a28.32,28.32,0,0,0,4,.22h3.11ZM35.8,39.1a21.45,21.45,0,0,0,6.32,7.14,15.17,15.17,0,0,0-2.21,3.39,25.9,25.9,0,0,1-7.21-8.78Z"/><path class="cls-2" d="M73.49,45.24a22,22,0,0,0-1,2.07,29.6,29.6,0,0,1-5.28,8.14,29.82,29.82,0,0,0,10.85,4.32,13.4,13.4,0,0,0-2.17,4,48.34,48.34,0,0,1-6.47-2.57,26.54,26.54,0,0,1-5-3.11,27,27,0,0,1-4.49,3,40.86,40.86,0,0,1-6.39,2.75,12.05,12.05,0,0,0-2.36-3.61,28.26,28.26,0,0,0,10.39-4.75,24.32,24.32,0,0,1-4.75-6.75,38.82,38.82,0,0,1-3.36,7.11,31.21,31.21,0,0,1-6,7.32,12.68,12.68,0,0,0-3-3,26.44,26.44,0,0,0,7.6-10,38.07,38.07,0,0,0,2.82-10.78H49.44a31.33,31.33,0,0,0-4.36.21V35.46a37.87,37.87,0,0,0,4.36.22h5.71c.07-.83.11-2.22.11-3.08a11.37,11.37,0,0,0-.15-1.92l4.54.1c-.11.68-.22,1.54-.29,2.54-.11,1.36-.11,1.64-.18,2.36h14a37.56,37.56,0,0,0,4.35-.22V39.6a28.61,28.61,0,0,0-4.35-.21H58.79c-.22,1.71-.32,2.35-.57,3.85h10.1a17.85,17.85,0,0,0,3.18-.17Zm-13.74,1.5a19.94,19.94,0,0,0,4.54,6.32,24.21,24.21,0,0,0,4.21-6.32Z"/><path class="cls-2" d="M87.88,42.6a33.55,33.55,0,0,1-5.71,3.07A16.66,16.66,0,0,0,80.1,42a33.31,33.31,0,0,0,9-5,23.45,23.45,0,0,0,5.64-6h4.25A21.83,21.83,0,0,0,105,37a38,38,0,0,0,9.18,4.82,15.86,15.86,0,0,0-2,4,37.7,37.7,0,0,1-6.1-3.24v2.78a26.62,26.62,0,0,0-3.21-.14H91a27.74,27.74,0,0,0-3.07.14Zm-2,9.21A32,32,0,0,0,81.7,52V47.89a35.83,35.83,0,0,0,4.21.21h22.24a34.35,34.35,0,0,0,4.18-.21V52a31.88,31.88,0,0,0-4.18-.22H95.87a38.47,38.47,0,0,1-3.71,6.93c6.32-.36,6.32-.36,11.31-.89-1.14-1.25-1.74-1.9-3.74-4l3.53-1.57a74.1,74.1,0,0,1,8.25,9.53l-3.43,2.25c-1.18-1.75-1.54-2.25-2.14-3.1-3,.39-5.11.64-6.43.78-3.53.32-10.6,1-12,1.07-2,.15-3.78.33-4.6.5L82.31,59c1,.07,1.57.11,2.07.11.25,0,1.32,0,3.14-.15a36.6,36.6,0,0,0,3.82-7.14Zm16.92-10.32c.57,0,.89,0,1.57,0a29.15,29.15,0,0,1-7.46-6.93,30.31,30.31,0,0,1-7.42,6.93c.61,0,.82,0,1.46,0Z"/><rect class="cls-1" y="7.5" width="124" height="13.52"/><path class="cls-1" d="M1,.22a2.23,2.23,0,0,0,0,.47V3.61a2.75,2.75,0,0,0,0,.53H.39a4.5,4.5,0,0,0,0-.54V.7a4,4,0,0,0,0-.48Zm.52.57c0-.19,0-.32,0-.47l.47,0h1.6L4,.32A2.89,2.89,0,0,0,4,.76V3.58a4.1,4.1,0,0,0,0,.51H3.47V3.83H2v.26H1.45a3.5,3.5,0,0,0,0-.53ZM2,3.37H3.46V2.27H2ZM2,1.8H3.47V.8H2Z"/><path class="cls-1" d="M7.37,1.27a3.32,3.32,0,0,1,.55.44A4.47,4.47,0,0,0,8.66,1H7.52a4.52,4.52,0,0,1-1.18.91A1.14,1.14,0,0,0,6,1.49,3.32,3.32,0,0,0,7.59.08L8.1.21C8,.38,8,.43,7.88.53h.89l.39,0,.25.27L9.26,1A5.64,5.64,0,0,1,7.94,2.24H9.36a1.78,1.78,0,0,0,.36,0c0,.12,0,.24,0,.41V3.75a2.63,2.63,0,0,0,0,.43h-.5V3.94H7.56v.24h-.5a3,3,0,0,0,0-.43v-1a5.82,5.82,0,0,1-.82.39A1.33,1.33,0,0,0,6,2.76a7.08,7.08,0,0,0,1-.45c.14-.08.29-.17.52-.33A2.93,2.93,0,0,0,7,1.53Zm.19,2.26H9.23V2.67H7.56Z"/><path class="cls-1" d="M12.06.54a1.51,1.51,0,0,0,0-.4h.57c0,.12,0,.22,0,.4V.87h1.21a3.68,3.68,0,0,0,.51,0v.52a4.24,4.24,0,0,0-.51,0H12.58v.75h1.28c0,.12,0,.23,0,.41v1.2a3,3,0,0,0,0,.48h-.52V3.93h-2v.23h-.53a3.23,3.23,0,0,0,0-.48V2.48c0-.17,0-.29,0-.41h1.21V1.33H10.93a3.94,3.94,0,0,0-.52,0V.84a3.94,3.94,0,0,0,.52,0h1.13Zm-.69,2.94h2V2.54h-2Z"/><path class="cls-1" d="M16.74,2.64l-.34,0-.73,0-.06-.42h.52a2.77,2.77,0,0,0,.21-.36h-.81a7.5,7.5,0,0,1-.15,1.24,2.82,2.82,0,0,1-.36,1,2,2,0,0,0-.38-.39A2.51,2.51,0,0,0,15,2.9,10.8,10.8,0,0,0,15.1.76a3.43,3.43,0,0,0,0-.5,4,4,0,0,0,.57,0H18l.48,0a1.83,1.83,0,0,0,0,.34V1a1.52,1.52,0,0,0,0,.32h-3v.23h2.55a5,5,0,0,0,.51,0V2a3,3,0,0,0-.46,0h-.29a7.42,7.42,0,0,1,.66.68l-.39.22-.23-.28-.68.06V3h1.22v.42a3,3,0,0,0-.45,0h-.77v.32h1a2.92,2.92,0,0,0,.53,0V4.1a2.93,2.93,0,0,0-.58,0H15.89a3.82,3.82,0,0,0-.55,0V3.65a2.81,2.81,0,0,0,.51,0h.89V3.36H16.1a2.9,2.9,0,0,0-.45,0V3h1.09ZM18.05,1V.67h-2.5V1Zm-1.23,1a2.69,2.69,0,0,1-.21.35l.66,0,.33,0L17.37,2l.2-.09Z"/><path class="cls-1" d="M21.38,2.06a2,2,0,0,1-1.44,2,1.45,1.45,0,0,0-.36-.49,1.48,1.48,0,0,0,1.23-1.55H19.75c-.34,0-.41,0-.56,0V1.57a3.43,3.43,0,0,0,.56,0h2.56a3.43,3.43,0,0,0,.56,0v.51c-.15,0-.22,0-.56,0ZM22,1a5.27,5.27,0,0,0-.55,0h-1.3a5.36,5.36,0,0,0-.56,0V.46a2.61,2.61,0,0,0,.57,0h1.28a2.46,2.46,0,0,0,.56,0Zm.25-.81a2.88,2.88,0,0,1,.39.69L22.35,1A3.32,3.32,0,0,0,22,.29Zm.63.62a3.21,3.21,0,0,0-.38-.68L22.86,0a2.9,2.9,0,0,1,.38.66Z"/><path class="cls-1" d="M26,1.17V.81a2.26,2.26,0,0,0,0-.43h.56a2.18,2.18,0,0,0,0,.28c0,.16,0,.33,0,.51h.28a3.58,3.58,0,0,0,.57,0v.53a3.59,3.59,0,0,0-.56,0h-.29a3.1,3.1,0,0,1-.21,1.41,2.11,2.11,0,0,1-1.3,1,1.28,1.28,0,0,0-.33-.46,1.64,1.64,0,0,0,1.18-.87A2.88,2.88,0,0,0,26,1.65H24.82V2.3a3.34,3.34,0,0,0,0,.36h-.56a3,3,0,0,0,0-.37V1.65H24a3.59,3.59,0,0,0-.56,0V1.14a3.58,3.58,0,0,0,.57,0h.25V.73a1.9,1.9,0,0,0,0-.39h.57c0,.15,0,.17,0,.38v.45Zm.83-1a2.76,2.76,0,0,1,.3.68l-.3.09A2.75,2.75,0,0,0,26.49.2Zm.54.63A2.8,2.8,0,0,0,27,.09L27.3,0a2.81,2.81,0,0,1,.3.65Z"/><path class="cls-1" d="M31.44.63l-.16.16a6.72,6.72,0,0,1-1,.89V3.55a2.72,2.72,0,0,0,0,.48h-.61a2.77,2.77,0,0,0,0-.47V2a6.81,6.81,0,0,1-1.56.71,1.49,1.49,0,0,0-.29-.5A6.14,6.14,0,0,0,30.13,1.1a3.2,3.2,0,0,0,.81-.82Z"/><path class="cls-1" d="M32.5,3.3A4.28,4.28,0,0,0,33.79,3a2.92,2.92,0,0,0,1.29-1.07A4.19,4.19,0,0,0,35.53,1a2.1,2.1,0,0,0,.46.43,3.93,3.93,0,0,1-1.38,1.71,4.82,4.82,0,0,1-1.67.65,1.59,1.59,0,0,0-.28.07ZM32.87.59A7.57,7.57,0,0,1,34,1.43l-.37.48A4.67,4.67,0,0,0,32.5,1Z"/><path class="cls-1" d="M39,2.17a.52.52,0,1,1-.52-.52A.52.52,0,0,1,39,2.17Z"/><path class="cls-1" d="M42.25,1.27a3.32,3.32,0,0,1,.55.44A4.47,4.47,0,0,0,43.54,1H42.4a4.52,4.52,0,0,1-1.18.91,1,1,0,0,0-.3-.37A3.32,3.32,0,0,0,42.47.08L43,.21l-.23.32h.89l.39,0,.25.27-.15.2a5.64,5.64,0,0,1-1.32,1.26h1.42a1.78,1.78,0,0,0,.36,0c0,.12,0,.24,0,.41V3.75a2.63,2.63,0,0,0,0,.43h-.5V3.94H42.44v.24h-.5a2.9,2.9,0,0,0,0-.43v-1a6.63,6.63,0,0,1-.83.39,1.33,1.33,0,0,0-.28-.43,7.08,7.08,0,0,0,1-.45c.14-.08.29-.17.52-.33a2.93,2.93,0,0,0-.53-.45Zm.19,2.26h1.67V2.67H42.44Z"/><path class="cls-1" d="M46.94.54a1.51,1.51,0,0,0,0-.4h.57c0,.12,0,.22,0,.4V.87h1.21a3.94,3.94,0,0,0,.52,0v.52a4.41,4.41,0,0,0-.52,0H47.46v.75h1.29a2.29,2.29,0,0,0,0,.41v1.2a3,3,0,0,0,0,.48h-.52V3.93h-2v.23h-.54a3.23,3.23,0,0,0,0-.48V2.48a2.49,2.49,0,0,0,0-.41h1.21V1.33H45.81a3.94,3.94,0,0,0-.52,0V.84a3.94,3.94,0,0,0,.52,0h1.13Zm-.68,2.94h2V2.54h-2Z"/><path class="cls-1" d="M51.62,2.64l-.34,0-.73,0-.06-.42H51a2.77,2.77,0,0,0,.21-.36h-.81a7.5,7.5,0,0,1-.15,1.24,2.82,2.82,0,0,1-.36,1,2,2,0,0,0-.38-.39,2.32,2.32,0,0,0,.31-.86A10.07,10.07,0,0,0,50,.76a3.43,3.43,0,0,0,0-.5,4.14,4.14,0,0,0,.57,0h2.4l.48,0a1.83,1.83,0,0,0,0,.34V1a1.52,1.52,0,0,0,0,.32h-3v.23H53a5,5,0,0,0,.51,0V2a3,3,0,0,0-.46,0h-.29a7.42,7.42,0,0,1,.66.68L53,2.84l-.23-.28-.68.06V3h1.22v.42a3,3,0,0,0-.44,0h-.78v.32h1a2.92,2.92,0,0,0,.53,0V4.1a2.93,2.93,0,0,0-.58,0H50.77a3.82,3.82,0,0,0-.55,0V3.65a2.81,2.81,0,0,0,.51,0h.89V3.36H51a2.9,2.9,0,0,0-.45,0V3h1.09ZM52.93,1V.67h-2.5V1Zm-1.22,1c-.09.15-.14.24-.22.35l.66,0,.33,0L52.25,2l.2-.09Z"/><path class="cls-1" d="M54,1.84l.35,0h.33l.33,0c0,.13,0,.24,0,.47v.94a.55.55,0,0,0,.32.3,2.33,2.33,0,0,0,.89.11,15.7,15.7,0,0,0,1.88-.08,1.66,1.66,0,0,0-.13.51l-1.5,0A4,4,0,0,1,55.27,4a1,1,0,0,1-.55-.39,3.13,3.13,0,0,1-.49.41,1.1,1.1,0,0,0-.14.11l-.21-.5a2.39,2.39,0,0,0,.62-.42V2.29h-.24a1.42,1.42,0,0,0-.29,0ZM54.34.22A6.18,6.18,0,0,1,55.1,1l-.37.35A4.77,4.77,0,0,0,54,.54Zm1.37.87a2.63,2.63,0,0,1-.25.35,1.3,1.3,0,0,0-.4-.25,2.15,2.15,0,0,0,.54-1l.46.1S56,.48,56,.52s0,.1-.07.17h.4V.58a1.94,1.94,0,0,0,0-.41h.51a1.82,1.82,0,0,0,0,.41V.69h.52a2.61,2.61,0,0,0,.46,0v.45l-.44,0h-.54V1.5h.73l.4,0v.44l-.4,0h-2l-.37,0V1.48l.39,0h.79V1.09Zm.09,2.3a3.38,3.38,0,0,0-.39,0,4,4,0,0,0,0-.45V2.53a1.4,1.4,0,0,0,0-.39h2.23c0,.11,0,.18,0,.44V3a3.92,3.92,0,0,0,0,.42l-.43,0ZM55.86,3h1.3v-.4h-1.3Z"/><path class="cls-1" d="M58.79.77a2,2,0,0,0-.38,0V.3l.44,0h1.36l.45,0V.79a1.85,1.85,0,0,0-.38,0h0v.9h.08a1.9,1.9,0,0,0,.38,0v.49a2,2,0,0,0-.38,0h-.08V3.64a3.3,3.3,0,0,0,0,.51h-.53a3.25,3.25,0,0,0,0-.5V2.12h-.49a4.34,4.34,0,0,1-.12,1,2.61,2.61,0,0,1-.55,1.07,1.58,1.58,0,0,0-.37-.36,2.38,2.38,0,0,0,.59-1.7h-.11a2.24,2.24,0,0,0-.39,0v-.5a1.43,1.43,0,0,0,.39,0h.11V.77Zm.51.9h.48V.77H59.3Zm3.13,1.12a1,1,0,0,0-.18.18,5.33,5.33,0,0,1-1.57,1.2,1.82,1.82,0,0,0-.3-.42,3.77,3.77,0,0,0,1.67-1.31ZM62.15.48,61.8.8a4.72,4.72,0,0,1-1,.71,1.57,1.57,0,0,0-.27-.43,3.72,3.72,0,0,0,.89-.54,1.77,1.77,0,0,0,.37-.38Zm.15,1.14-.19.17a5.09,5.09,0,0,1-.71.61,4.13,4.13,0,0,1-.63.37,2.13,2.13,0,0,0-.28-.43,3.66,3.66,0,0,0,1.07-.66,2.91,2.91,0,0,0,.35-.39Z"/><path class="cls-1" d="M63.8,1.74A5.2,5.2,0,0,0,65.7,1l.35.49-.39.19a7.63,7.63,0,0,1-1.86.6v.58a.11.11,0,0,0,0,.05c0,.26,0,.36.08.42s.32.11.75.11a7.15,7.15,0,0,0,1-.07,2.5,2.5,0,0,0,.49-.1l0,.58-.58,0c-.25,0-.8.05-1.07.05a1.74,1.74,0,0,1-1-.19.58.58,0,0,1-.21-.44,3.48,3.48,0,0,1,0-.41v-2a2,2,0,0,0,0-.4h.59a2,2,0,0,0,0,.4ZM65.87.24a2.87,2.87,0,0,1,.43.67L66,1.05a3.21,3.21,0,0,0-.43-.67Zm.65.56A3.15,3.15,0,0,0,66.1.15L66.4,0a2.52,2.52,0,0,1,.43.63Z"/><path class="cls-1" d="M67.55,1.45a6,6,0,0,1,1.16.6l-.27.49a5.07,5.07,0,0,0-1.18-.64Zm-.19,2a4,4,0,0,0,1.26-.29A3,3,0,0,0,70.38,1.2a2.44,2.44,0,0,0,.46.39,3.68,3.68,0,0,1-3,2.34L67.51,4Zm.53-3A6.26,6.26,0,0,1,69.05,1l-.28.48a5.37,5.37,0,0,0-1.16-.6ZM70.16.31a2.83,2.83,0,0,1,.46.64l-.31.16a3,3,0,0,0-.46-.65Zm.67.53A3.29,3.29,0,0,0,70.39.2l.29-.15a2.29,2.29,0,0,1,.45.62Z"/><path class="cls-1" d="M73.05,4.1a2.17,2.17,0,0,0,0-.38V2.58L73,2.66a7.82,7.82,0,0,1-1.23.49,1.74,1.74,0,0,0-.26-.48,5.36,5.36,0,0,0,1.21-.4A4.45,4.45,0,0,0,74,1.34h-.09l-1.59,0a2.83,2.83,0,0,0-.46,0V.85a1.91,1.91,0,0,0,.46,0h.73V.53a1.28,1.28,0,0,0,0-.31h.58a1.24,1.24,0,0,0,0,.3V.89h.74a1.06,1.06,0,0,0,.29,0l.26.29a1,1,0,0,0-.2.19,6,6,0,0,1-.88.82,7.25,7.25,0,0,1,1.52.68l-.29.46a7.94,7.94,0,0,0-1.33-.7l-.11,0c0,.06,0,.18,0,.22v1a2,2,0,0,0,0,.38Z"/><path class="cls-1" d="M79.22,4a8.27,8.27,0,0,0-1.34-1.3,5,5,0,0,1-1.66,1.26,1.79,1.79,0,0,0-.35-.48A3.77,3.77,0,0,0,76.74,3,4.23,4.23,0,0,0,78.21,1.2l0-.12-1.44,0a3,3,0,0,0-.47,0l0-.56a1.39,1.39,0,0,0,.38,0h.11l1.53,0a1,1,0,0,0,.39,0l.29.3a.7.7,0,0,0-.14.23,6.06,6.06,0,0,1-.68,1.21,5.92,5.92,0,0,1,.8.63l.64.61Z"/><path class="cls-1" d="M82.63,2.17a.52.52,0,1,1-.52-.52A.52.52,0,0,1,82.63,2.17Z"/><path class="cls-1" d="M85.85,1.27a3,3,0,0,1,.55.44A4.47,4.47,0,0,0,87.14,1H86a4.52,4.52,0,0,1-1.18.91,1,1,0,0,0-.3-.37A3.32,3.32,0,0,0,86.07.08l.52.13-.23.32h.89l.39,0,.25.27-.15.2a5.64,5.64,0,0,1-1.32,1.26h1.42a1.78,1.78,0,0,0,.36,0c0,.12,0,.24,0,.41V3.75a2.63,2.63,0,0,0,0,.43h-.5V3.94H86.05v.24h-.51a2.9,2.9,0,0,0,0-.43v-1a6.63,6.63,0,0,1-.83.39,1.33,1.33,0,0,0-.28-.43,7.08,7.08,0,0,0,1-.45c.14-.08.29-.17.52-.33a2.93,2.93,0,0,0-.53-.45ZM86,3.53h1.68V2.67H86Z"/><path class="cls-1" d="M90.54.54a1.51,1.51,0,0,0,0-.4h.58a2.17,2.17,0,0,0,0,.4V.87h1.21a3.94,3.94,0,0,0,.52,0v.52a4.41,4.41,0,0,0-.52,0H91.06v.75h1.29a2.29,2.29,0,0,0,0,.41v1.2a3,3,0,0,0,0,.48h-.52V3.93h-2v.23h-.54a3.23,3.23,0,0,0,0-.48V2.48a2.49,2.49,0,0,0,0-.41h1.21V1.33H89.42a4,4,0,0,0-.53,0V.84a4,4,0,0,0,.53,0h1.12Zm-.68,2.94h2V2.54h-2Z"/><path class="cls-1" d="M95.22,2.64l-.34,0-.73,0-.06-.42h.52a2.77,2.77,0,0,0,.21-.36H94a7.5,7.5,0,0,1-.15,1.24,3,3,0,0,1-.35,1,2.4,2.4,0,0,0-.39-.39,2.52,2.52,0,0,0,.32-.86A11,11,0,0,0,93.58.76a3.43,3.43,0,0,0,0-.5,4.14,4.14,0,0,0,.57,0h2.4l.48,0a1.83,1.83,0,0,0,0,.34V1a1.52,1.52,0,0,0,0,.32H94v.23h2.55a5,5,0,0,0,.51,0V2a2.9,2.9,0,0,0-.46,0h-.28c.16.15.36.35.65.68l-.39.22-.23-.28-.68.06V3h1.22v.42a3,3,0,0,0-.44,0h-.78v.32h1a2.92,2.92,0,0,0,.53,0V4.1a2.93,2.93,0,0,0-.58,0H94.37a3.82,3.82,0,0,0-.55,0V3.65a2.81,2.81,0,0,0,.51,0h.89V3.36h-.64a2.9,2.9,0,0,0-.45,0V3h1.09ZM96.53,1V.67H94V1Zm-1.22,1c-.09.15-.14.24-.22.35l.67,0,.32,0L95.85,2l.2-.09Z"/><path class="cls-1" d="M97.57,1.84l.35,0h.33l.33,0c0,.13,0,.24,0,.47v.94a.55.55,0,0,0,.32.3,2.33,2.33,0,0,0,.89.11,15.7,15.7,0,0,0,1.88-.08,1.66,1.66,0,0,0-.13.51l-1.5,0A4,4,0,0,1,98.87,4a1,1,0,0,1-.55-.39,3.13,3.13,0,0,1-.49.41l-.14.11-.21-.5a2.58,2.58,0,0,0,.63-.42V2.29h-.24a1.46,1.46,0,0,0-.3,0ZM97.94.22A6.18,6.18,0,0,1,98.7,1l-.37.35a4.77,4.77,0,0,0-.74-.82Zm1.37.87a2.63,2.63,0,0,1-.25.35,1.3,1.3,0,0,0-.4-.25,2.15,2.15,0,0,0,.54-1l.46.1s-.06.15-.08.19,0,.1-.07.17h.4V.58a1.94,1.94,0,0,0,0-.41h.51a1.82,1.82,0,0,0,0,.41V.69h.52a2.61,2.61,0,0,0,.46,0v.45l-.44,0h-.54V1.5h.73a3.59,3.59,0,0,0,.4,0v.44l-.4,0h-2l-.37,0V1.48l.4,0h.78V1.09Zm.09,2.3a3.38,3.38,0,0,0-.39,0A4,4,0,0,0,99,3V2.53a1.4,1.4,0,0,0,0-.39h2.23c0,.11,0,.18,0,.44V3a3.92,3.92,0,0,0,0,.42l-.43,0ZM99.46,3h1.31v-.4H99.46Z"/><path class="cls-1" d="M102.39.77a2,2,0,0,0-.38,0V.3l.44,0h1.36l.45,0V.79a1.85,1.85,0,0,0-.38,0h0v.9h.08a1.9,1.9,0,0,0,.38,0v.49a2,2,0,0,0-.38,0h-.08V3.64a3.3,3.3,0,0,0,0,.51h-.53a3.25,3.25,0,0,0,0-.5V2.12h-.49a4.34,4.34,0,0,1-.12,1,2.61,2.61,0,0,1-.55,1.07,1.58,1.58,0,0,0-.37-.36,2.38,2.38,0,0,0,.59-1.7h-.11a2.24,2.24,0,0,0-.39,0v-.5a1.47,1.47,0,0,0,.39,0h.11V.77Zm.51.9h.48V.77h-.48ZM106,2.79a1,1,0,0,0-.18.18,5.33,5.33,0,0,1-1.57,1.2,1.82,1.82,0,0,0-.3-.42,3.77,3.77,0,0,0,1.67-1.31ZM105.75.48,105.4.8a4.72,4.72,0,0,1-1.05.71,1.57,1.57,0,0,0-.27-.43A3.72,3.72,0,0,0,105,.54a1.77,1.77,0,0,0,.37-.38Zm.15,1.14-.19.17a5.09,5.09,0,0,1-.71.61,4.13,4.13,0,0,1-.63.37,1.78,1.78,0,0,0-.28-.43,3.66,3.66,0,0,0,1.07-.66,2.91,2.91,0,0,0,.35-.39Z"/><path class="cls-1" d="M108.58,2.06a2,2,0,0,1-1.44,2,1.45,1.45,0,0,0-.36-.49A1.48,1.48,0,0,0,108,2.06H107c-.34,0-.41,0-.56,0V1.57a3.58,3.58,0,0,0,.57,0h2.55a3.43,3.43,0,0,0,.56,0v.51c-.15,0-.21,0-.55,0ZM109.24,1a5.11,5.11,0,0,0-.55,0h-1.3a5.36,5.36,0,0,0-.56,0V.46a2.61,2.61,0,0,0,.57,0h1.28a2.46,2.46,0,0,0,.56,0Zm.25-.81a2.88,2.88,0,0,1,.39.69l-.33.12a3.32,3.32,0,0,0-.38-.7Zm.63.62a3.21,3.21,0,0,0-.38-.68l.32-.11a2.57,2.57,0,0,1,.38.66Z"/><path class="cls-1" d="M113.15,1.17V.81a2.26,2.26,0,0,0,0-.43h.56a2.18,2.18,0,0,0,0,.28c0,.16,0,.33,0,.51H114a3.58,3.58,0,0,0,.57,0v.53a3.59,3.59,0,0,0-.56,0h-.29a3.1,3.1,0,0,1-.21,1.41,2.11,2.11,0,0,1-1.3,1,1.37,1.37,0,0,0-.32-.46A1.64,1.64,0,0,0,113,2.74a2.88,2.88,0,0,0,.14-1.09H112V2.3a1.68,1.68,0,0,0,0,.36h-.57c0-.09,0-.13,0-.37V1.65h-.27a3.59,3.59,0,0,0-.56,0V1.14a3.58,3.58,0,0,0,.57,0h.26V.73a1.73,1.73,0,0,0,0-.39H112a2.06,2.06,0,0,0,0,.38v.45Zm.83-1a2.79,2.79,0,0,1,.31.68L114,.89a2.75,2.75,0,0,0-.29-.69Zm.54.63a2.17,2.17,0,0,0-.3-.66L114.5,0a2.81,2.81,0,0,1,.3.65Z"/><path class="cls-1" d="M118.65.63l-.17.16a7.15,7.15,0,0,1-1,.89V3.55a3,3,0,0,0,0,.48h-.61a2.77,2.77,0,0,0,0-.47V2a6.91,6.91,0,0,1-1.55.71,1.71,1.71,0,0,0-.3-.5,6.14,6.14,0,0,0,2.29-1.13,3.2,3.2,0,0,0,.81-.82Z"/><path class="cls-1" d="M119.7,3.3A4.28,4.28,0,0,0,121,3a2.92,2.92,0,0,0,1.29-1.07,3.76,3.76,0,0,0,.45-.87,2.1,2.1,0,0,0,.46.43,3.93,3.93,0,0,1-1.38,1.71,4.84,4.84,0,0,1-1.66.65,1.52,1.52,0,0,0-.29.07Zm.37-2.71a6.63,6.63,0,0,1,1.12.84l-.37.48A4.67,4.67,0,0,0,119.7,1Z"/><path class="cls-2" d="M51.39,13.8v.31H45.93v-.73h2.3v-.84H47.08a6.21,6.21,0,0,1-.37.51h0a.38.38,0,0,1-.28.11.42.42,0,0,1-.3-.12h0l-.28-.33A4.13,4.13,0,0,0,47,11l.4.16h0a.4.4,0,0,1,.22.49l-.06.19h.72V11h.45a.41.41,0,0,1,.38.44h0v.34H50.7a.41.41,0,0,1,.39.43v.32h-2v.84H51A.4.4,0,0,1,51.39,13.8Z"/><path class="cls-2" d="M44.6,11.33a.42.42,0,0,0-.51.14h0l-.23.43a8.32,8.32,0,0,1,1.47,1l.51-.72A7.52,7.52,0,0,0,44.6,11.33Z"/><path class="cls-2" d="M44,18.09l.28.24a3.53,3.53,0,0,0,.93-.95,2.64,2.64,0,0,0,2.2.95h3.75a.38.38,0,0,0,.38-.4v-.4H47.46a3,3,0,0,1-1.11-.27,1.17,1.17,0,0,1-.72-.79V14.22a.41.41,0,0,0-.41-.41H44v.81h.85v2.06c0,.28-.32.6-.69.84h0A.42.42,0,0,0,44,18.09Z"/><path class="cls-2" d="M56.17,13.08a.4.4,0,0,1,.18-.56A7.74,7.74,0,0,0,58.51,11l.33.32h0a.42.42,0,0,1,0,.59h0a10.45,10.45,0,0,1-2.46,1.63l-.22-.42Z"/><path class="cls-2" d="M56.26,17.9a.24.24,0,0,1,0-.08.41.41,0,0,1,.21-.48h0a6,6,0,0,0,2.43-2.11l.43.32h0a.41.41,0,0,1,0,.58h0a9.36,9.36,0,0,1-2.8,2.2l-.24-.43Z"/><path class="cls-2" d="M56.18,15.59a.41.41,0,0,1,.11-.57h0a6.93,6.93,0,0,0,2.08-1.86l.32.25h0a.41.41,0,0,1,0,.58h0a8.86,8.86,0,0,1-2.35,1.93l-.2-.33Z"/><path class="cls-2" d="M56.12,13.88h-.63v-2h.63v-.39a.41.41,0,0,0-.41-.41H52.1v.8h.74v2h-.9v.81h.9v.2a3.54,3.54,0,0,1-.8,2.52h0a.43.43,0,0,0-.11.28.46.46,0,0,0,.2.35h0l.35.29a4.49,4.49,0,0,0,1.19-3.41v-.23h1v3.64h.81V14.69h1v-.4A.41.41,0,0,0,56.12,13.88Zm-1.44,0h-1v-2h1Z"/><path class="cls-2" d="M50.57,14.62h-4.2V17H51v-2A.41.41,0,0,0,50.57,14.62Zm-.42,1.68H47.2v-1h2.95Z"/><path class="cls-2" d="M24.94,13a5,5,0,0,0-.77,0v-.82H27.8v-.4a.45.45,0,0,0-.42-.46H24.17v-.48a.45.45,0,0,0-.42-.47h-.43v.95H20.64v.86h2.68v1a4,4,0,0,0-1.62,1,3,3,0,0,0-.94,2,1.75,1.75,0,0,0,.89,1.57,1.34,1.34,0,0,0,1.49-.09A31.77,31.77,0,0,0,25.77,14,1.56,1.56,0,0,1,27,15.78c0,.6-.75,1.47-2.34,1.59a.48.48,0,0,0-.36.41v.53c2.59,0,3.55-1.55,3.55-2.53S27.58,13.16,24.94,13Zm-2.31,3.87a.58.58,0,0,1-.61,0,.78.78,0,0,1-.41-.73,2.08,2.08,0,0,1,.67-1.29,3.16,3.16,0,0,1,1-.69V16A7.41,7.41,0,0,1,22.63,16.82Zm1.54-2v-.91a4.42,4.42,0,0,1,.64,0Z"/><path class="cls-2" d="M41,13.31a4,4,0,0,0-2.42.86c.14-.48.3-1.07.45-1.57h4v-.39a.44.44,0,0,0-.43-.46H39.29c.11-.36.21-.67.27-.9a.49.49,0,0,0-.22-.51l-.47-.16-.48,1.57H36.14v.85h2l-.9,3,.75.42a4.11,4.11,0,0,1,3-1.81c1,0,1.51.48,1.51,1.43s-1.25,1.58-3.38,1.68a.45.45,0,0,0-.41.47v.47c4-.05,4.65-1.66,4.65-2.62A2.17,2.17,0,0,0,41,13.31Z"/><path class="cls-2" d="M30.91,16.45a.37.37,0,0,1-.24.15.41.41,0,0,1-.22-.13c-.57-.75-.88-3.18-1-4.81a.46.46,0,0,0-.42-.4l-.45,0c0,.45.16,4.48,1.18,5.79a1.21,1.21,0,0,0,.84.46,1.12,1.12,0,0,0,.89-.44,2.45,2.45,0,0,0,.5-.89l-.73-.7A1.54,1.54,0,0,1,30.91,16.45Z"/><path class="cls-2" d="M34.78,11.71a.37.37,0,0,0-.53-.07L33.9,12A6.49,6.49,0,0,1,35.07,16l.86.05A7.5,7.5,0,0,0,34.78,11.71Z"/><path class="cls-2" d="M65.74,11.66a.43.43,0,0,0-.41-.47H60.41v.93h5.33Z"/><path class="cls-2" d="M66.51,13.14H59.59v.93h3.17a4.69,4.69,0,0,1-.12,1.63,2.48,2.48,0,0,1-.72,1.13,2.81,2.81,0,0,1-1.42.36.45.45,0,0,0-.45.44v.44h.6a3.92,3.92,0,0,0,1.66-.46,3.19,3.19,0,0,0,1.12-1.31,5.88,5.88,0,0,0,.35-2.23h3.14v-.46A.44.44,0,0,0,66.51,13.14Z"/><path class="cls-2" d="M76.16,15.43,76.05,15a.44.44,0,0,1,.36-.49A7.85,7.85,0,0,0,80,13a12.3,12.3,0,0,0,1.8-2.15l.23-.31.34.22a.4.4,0,0,1,.21.38c0,.22-.13.47-.67,1.2-.38.51-.72.9-1.09,1.31v4.48h-1V14.18a7,7,0,0,1-1.84.83A17,17,0,0,1,76.16,15.43Z"/><path class="cls-2" d="M66,12.12V10.77h.51c.23,0,.35.14.35.42v.93Z"/><path class="cls-2" d="M67.08,12.12V10.77h.5c.24,0,.35.14.35.42v.93Z"/><path class="cls-2" d="M83.38,11.12H86.1c.28,0,.42.11.42.35V12H83.38Z"/><path class="cls-2" d="M74.64,12.12V10.77h.5q.36,0,.36.42v.93Z"/><path class="cls-2" d="M75.73,12.12V10.77h.51c.24,0,.35.14.35.42v.93Z"/><path class="cls-2" d="M70.1,18.21A15.28,15.28,0,0,0,72,17.92a2.92,2.92,0,0,0,2.06-1.66,2.63,2.63,0,0,0,.36-1.41V13.44h1.4v-.58a.36.36,0,0,0-.41-.35h-1V11.17a.4.4,0,0,0-.43-.42h-.57v1.76h-2.6V11.17c0-.28-.12-.42-.35-.42h-.63v1.76H68.39v.93h1.44v1.62h1V13.44h2.6v1.41A2,2,0,0,1,73,16.2a3.15,3.15,0,0,1-2.57,1,.44.44,0,0,0-.41.46Z"/><path class="cls-2" d="M89.13,12H88.7s-.45,2.68-1.84,3.73A7.71,7.71,0,0,1,83,17.24l.1.86A9.65,9.65,0,0,0,85,17.79a6,6,0,0,0,3.38-2.11,7.93,7.93,0,0,0,.87-1.8,4.48,4.48,0,0,0,.29-1.47A.4.4,0,0,0,89.13,12Z"/><path class="cls-2" d="M96.83,11.71v-.38a.38.38,0,0,0-.37-.37H93.94v-.18a.38.38,0,0,0-.37-.37h-.42V11H90.26v.75h2.89V12H90.72v3.24h3.94v.33H90.12v.74H91.8l-.28.39a7.91,7.91,0,0,1,1.08.94l.49-.68c-.27-.28-.51-.49-.69-.65h2.26v1h-1.1a.37.37,0,0,0-.37.37v.37h1.55a.74.74,0,0,0,.74-.74v-1h1.35V16a.38.38,0,0,0-.37-.37h-1v-.33h.89V12.41A.38.38,0,0,0,96,12H93.94v-.32Zm-3.68,2.82H91.51v-.45h1.64Zm0-1.31H91.51v-.45h1.64Zm2.42,1.31H93.94v-.45h1.63Zm0-1.76v.45H93.94v-.45Z"/><path class="cls-2" d="M100,10.64H97.27V18.1h.83V14h2.26V11A.37.37,0,0,0,100,10.64Zm-.45,2.63H98.1V12.7h1.44Zm0-1.31H98.1v-.57h1.44Z"/><path class="cls-2" d="M103.59,10.64h-2.65V14h2.2v3.35h-1.25a.37.37,0,0,0-.37.37v.37h1.7a.74.74,0,0,0,.74-.74V11A.38.38,0,0,0,103.59,10.64Zm-1.83.75h1.38V12h-1.38Zm0,1.88V12.7h1.38v.57Z"/><path class="cls-2" d="M110.83,11.94H110a3.77,3.77,0,0,0,.66-1,.37.37,0,0,0-.19-.48l-.42-.17a6.11,6.11,0,0,1-1.13,1.57l.12,0h-.56l0,0a8.54,8.54,0,0,0-.87-1.38.38.38,0,0,0-.5,0l-.34.32a12.94,12.94,0,0,1,.81,1.16h-1l0,0a8.54,8.54,0,0,0-.87-1.38.38.38,0,0,0-.5,0l-.34.32a12.94,12.94,0,0,1,.81,1.16H104.3v2h.83V12.69h5.24v1.22h.83v-1.6A.38.38,0,0,0,110.83,11.94Z"/><path class="cls-2" d="M111.21,15.71a.38.38,0,0,0-.37-.37H108.2V15A9.28,9.28,0,0,0,109.66,14c.07-.06.13-.13.19-.19l0,0s0,0,0,0a.36.36,0,0,0,.06-.2.37.37,0,0,0-.37-.38h-4V14h2.87c-.21.15-.42.29-.59.39h-.46v1h-3.09v.74h3.09v1.28h-1.13a.36.36,0,0,0-.37.37v.37h1.58a.74.74,0,0,0,.74-.74V16.08h3Z"/><path class="cls-2" d="M116.73,16.14a7.48,7.48,0,0,0,1-2,3.56,3.56,0,0,0,.64.72l.52-.73A4,4,0,0,1,117.74,12h.79v-.37a.37.37,0,0,0-.37-.37h-1.45v-.48a.37.37,0,0,0-.37-.38h-.45v.86h-1.81V12H115a4,4,0,0,1-1.07,2.22l.3.42a.34.34,0,0,0,.52,0l.19-.24a7.18,7.18,0,0,0,.71,1.65,5.76,5.76,0,0,1-2,1.4l.22.46a.4.4,0,0,0,.51.2h0a6.52,6.52,0,0,0,1.76-1.31,5.21,5.21,0,0,0,1.88,1.5.37.37,0,0,0,.48-.22l.17-.49A4.48,4.48,0,0,1,116.73,16.14Zm-.5-.79a6.45,6.45,0,0,1-.68-2.1,8,8,0,0,0,.31-1.24h1a7.42,7.42,0,0,0,.28,1.06A6.43,6.43,0,0,1,116.23,15.35Z"/><path class="cls-2" d="M114.44,15.14a23.42,23.42,0,0,0-1-2.38v-.07h.81v-.38a.38.38,0,0,0-.38-.37h-.43V10.75a.37.37,0,0,0-.37-.37h-.45v1.56h-1.08v.75h1a9.55,9.55,0,0,1-1.29,3.53l.41.36a.38.38,0,0,0,.47-.12,3.27,3.27,0,0,0,.44-1v2.56h.82V14.88a7,7,0,0,1,.24.67Z"/><path class="cls-2" d="M10.84,10.35a.76.76,0,0,0-.75.75.75.75,0,0,0,.75.74h2.61L10.25,17a.29.29,0,0,0,0,.16.28.28,0,0,0,0,.15.31.31,0,0,0,.26.16h3.08a.13.13,0,0,1,.14.13.14.14,0,0,1-.14.14H10.11c-.31-1.19-1.69-6.45-1.74-6.63-.13-.48-.42-.76-.8-.76s-.67.28-.8.76c0,.06-.6,2.29-1,4a.3.3,0,0,0,.17.35.3.3,0,0,0,.37-.1,1.17,1.17,0,1,1-.22.85.31.31,0,0,0-.28-.26.31.31,0,0,0-.32.23L5,18a.3.3,0,0,0,.22.37.29.29,0,0,0,.37-.21l.25-1A1.77,1.77,0,0,0,9,16a1.55,1.55,0,0,0,0-.31l.63,2.4a.29.29,0,0,0,.29.22h3.72a.74.74,0,1,0,0-1.48H11.05c.49-.78,3.2-5.16,3.2-5.16a.24.24,0,0,0,.05-.16.28.28,0,0,0,0-.15.3.3,0,0,0-.26-.15H10.84a.14.14,0,0,1-.14-.14.14.14,0,0,1,.14-.14h4.55a3.39,3.39,0,1,1,0,6.78h-.18v-6.2a.3.3,0,1,0-.6,0V18a.3.3,0,0,0,.08.21.32.32,0,0,0,.22.1h.48a4,4,0,0,0,0-8Zm-3.48.92c0-.07.09-.31.21-.31s.19.24.21.31.61,2.3,1.1,4.18a1.77,1.77,0,0,0-1.67-1.19,1.7,1.7,0,0,0-.67.13C7,12.83,7.34,11.31,7.36,11.27Z"/></g></g></g></svg>